<?xml version="1.0" encoding="UTF-8" standalone="no"?>
<svg
   style="overflow:visible"
   viewBox="0 0 2501.7041 480.5758"
   version="1.1"
   id="svg1"
   xml:space="preserve"
   width="2501.7041"
   height="480.57581"
   xmlns="http://www.w3.org/2000/svg"
   xmlns:svg="http://www.w3.org/2000/svg"><defs
     id="defs1" /><g
     id="layer1"
     transform="translate(1564,-4616.9982)"><path
       id="path151-0"
       style="font-weight:900;font-stretch:condensed;font-size:133.333px;font-family:'Noto Serif Tamil Condensed';-inkscape-font-specification:'Noto Serif Tamil Condensed, Heavy Condensed';baseline-shift:baseline;display:inline;overflow:visible;vector-effect:none;fill:#21357f;fill-opacity:1;fill-rule:evenodd;stroke-width:0.887949;enable-background:accumulate;stop-color:#000000"
       d="m -1320.8496,4617.0001 c -37.6935,37.4991 -75.3811,74.9905 -113.0723,112.4824 l 13.4277,13.4375 c 33.2153,-33.042 66.4292,-66.0921 99.6446,-99.1269 33.388,33.2154 66.7798,66.4318 100.1699,99.6543 l 13.4316,-13.4297 c -37.869,-37.6724 -75.7384,-75.3379 -113.6015,-113.0176 z m 1576.22656,0 h -2.83203 v 0.1484 c -2.7323,0.147 -5.38841,0.4359 -7.87891,1.0195 -2.7949,0.6551 -5.43061,1.5917 -7.87891,2.8008 -5.2157,2.5446 -9.34476,6.0038 -12.23046,10.2774 v 0.01 l -0.0117,0.01 c -2.779,4.1828 -4.17578,8.8017 -4.17578,13.7109 0,5.2983 1.10477,9.9388 3.38867,13.877 h -25.64258 v 30.4082 c -0.6157,0.2714 -1.22009,0.5579 -1.80859,0.8691 -3.1695,1.6754 -5.83646,3.8951 -7.93946,6.584 l -0.01,0.01 -0.01,0.01 c -2.4867,3.2283 -3.70312,7.049 -3.70312,11.2559 0,4.4927 1.19146,8.6351 3.60546,12.291 l 0.01,0.012 0.01,0.012 c 2.4689,3.6502 6.31572,6.5372 11.26562,8.5898 5.0622,2.0992 11.30847,3.0703 18.69727,3.0703 7.8657,0 14.75149,-1.0581 20.59179,-3.2676 l 0.0176,-0.01 0.0195,-0.01 c 5.8105,-2.2827 10.40085,-5.5875 13.53125,-9.8281 l 0.01,-0.01 0.0117,-0.01 c 2.1926,-3.0307 3.60655,-6.4444 4.24805,-10.164 0.273,-1.5838 0.40625,-3.221 0.40625,-4.9141 v -4.3555 h 8.63476 9.9336 v -12.8046 h -9.9336 -8.63476 v -14.9375 h 8.63476 9.9336 v -12.8028 h -6.45508 c 2.0254,-0.3499 3.99492,-0.8134 5.82422,-1.5273 l 0.0137,-0.01 0.0156,-0.01 c 3.741,-1.507 6.78973,-3.7531 8.95313,-6.6211 2.3125,-3.0191 3.41211,-6.673 3.41211,-10.7715 0,-4.4603 -1.37985,-8.5299 -4.15235,-11.9844 -2.6517,-3.4205 -6.44723,-6.1057 -11.17773,-7.9863 -1.1427,-0.4727 -2.34836,-0.7573 -3.53906,-1.0899 v -0.7754 h -2.80664 c -3.1832,-0.681 -6.60736,-1.0781 -10.34766,-1.0781 z m 637.25197,8.0957 -0.01,0.016 c -6.9299,0 -13.07034,0.9872 -18.33594,3.0391 -5.3179,2.0356 -9.56803,4.9604 -12.51953,8.7168 h -0.002 c -0.001,0 -0.003,0 -0.008,0 -2.9629,3.6951 -4.42578,8.076 -4.42578,12.918 0,3.3029 0.74205,6.347 2.21875,9.0566 H 811.689 v 30.5352 c -3.9648,1.7486 -7.259,4.2605 -9.75,7.4453 l -0.01,0.01 v 0.01 c -2.4806,3.2201 -3.70703,7.0026 -3.70703,11.1387 0,4.4927 1.19342,8.6369 3.60742,12.2929 l 0.01,0.01 0.01,0.012 c 2.4689,3.6501 6.31572,6.5373 11.26562,8.5899 l 0.0117,0.01 h 0.01 c 5.1346,2.0858 11.37748,3.0625 18.67578,3.0625 7.775,0 14.61813,-1.0601 20.45313,-3.2675 5.5995,-2.1184 10.0749,-5.2048 13.2871,-9.1407 v 12.4082 h 12.32618 c 4.0817,0 7.95341,-0.3728 11.59961,-1.1289 l 0.0254,-0.01 0.0273,-0.01 c 3.7875,-0.8489 7.15078,-2.1432 10.01758,-3.9043 l 0.01,-0.01 0.01,-0.01 c 2.9993,-1.8658 5.34612,-4.2659 6.94922,-7.0977 1.7402,-2.9844 2.54102,-6.5125 2.54102,-10.5273 0,-5.382 -1.54578,-9.9643 -4.85938,-13.4453 -3.2214,-3.3841 -7.75662,-5.7718 -13.29492,-7.1368 -0.8264,-0.2192 -1.66981,-0.421 -2.53321,-0.6054 -4.7137,-1.0073 -9.95766,-1.4981 -15.73046,-1.4981 h -1.84961 v -14.9375 h 15.74023 3.96094 v -2.9336 -9.8691 h -2.96875 -0.0195 c -3.1187,0 -5.58882,-0.4882 -7.54492,-1.3574 -1.7245,-0.7978 -2.36133,-1.6862 -2.36133,-3.8203 0,-1.0196 0.37777,-1.9496 1.38867,-3.0274 0.8926,-0.9517 2.47751,-1.884 4.97851,-2.6445 2.4057,-0.7316 5.63465,-1.1504 9.65625,-1.1504 4.67,0 9.1241,0.6883 13.4336,2.0742 4.1312,1.3285 7.41303,3.4677 10.04883,6.5703 2.4992,2.942 3.87695,7.0479 3.87695,12.5196 v 63.4726 h 16.71289 v -68.7637 c 0,-6.6601 -1.21774,-12.4271 -3.77734,-17.2714 -2.4117,-4.7412 -5.79039,-8.6721 -10.11719,-11.668 -4.2525,-3.0214 -9.1029,-5.2259 -14.4668,-6.5703 -5.3725,-1.4008 -10.95352,-2.1016 -16.70312,-2.1016 z m -1497.16996,0 v 0.014 c -6.92907,2e-4 -13.07055,0.9873 -18.33594,3.0391 -5.31812,2.0357 -9.56441,4.9609 -12.51562,8.7168 l -0.008,0.01 c -2.96277,3.6951 -4.42382,8.0759 -4.42382,12.9179 0,3.303 0.74005,6.3472 2.21679,9.0567 h -49.41601 v 30.5039 c -3.88887,1.6696 -7.14589,4.1 -9.59766,7.2304 -2.58892,3.227 -3.86914,7.0625 -3.86914,11.2793 0,4.4926 1.19517,8.6368 3.60937,12.293 l 0.0117,0.02 0.0137,0.02 c 2.55568,3.7093 6.43768,6.6359 11.39454,8.6914 5.06229,2.0993 11.31042,3.0703 18.69922,3.0703 7.77509,0 14.57203,-1.0605 20.32421,-3.2754 5.81181,-2.2018 10.44826,-5.4635 13.67188,-9.6894 2.41839,-3.1703 3.92109,-6.8164 4.52344,-10.8399 0.20728,-1.3845 0.30859,-2.8148 0.30859,-4.2871 v -4.375 c 0.98379,0.1915 2.00506,0.5208 3.16211,1.2187 l 0.0352,0.02 0.0352,0.021 c 1.48048,0.8372 2.96064,2.3907 4.23828,4.8632 0.40699,0.7876 0.76092,1.7087 1.04883,2.7657 0.54946,2.0173 0.84961,4.5209 0.84961,7.4785 0,5.0068 -1.24461,8.724 -3.45898,11.3476 l -0.0156,0.018 -0.0137,0.016 c -2.22031,2.7281 -5.1955,4.6156 -9.23047,5.8008 h -0.008 -0.01 c -4.0733,1.2219 -8.84482,1.8574 -14.3457,1.8574 h -19.70117 c -4.17241,0 -8.20957,0.2008 -12.11328,0.6055 h -0.0352 -0.0332 c -3.96989,0.4938 -7.55199,1.2824 -10.73828,2.3906 -3.32177,1.1553 -6.09398,2.8704 -8.11524,5.1055 -2.13085,2.3564 -3.11523,5.3468 -3.11523,8.6953 0,4.879 2.41383,9.0392 6.95703,11.4883 4.33938,2.3393 9.74423,3.4336 15.99805,3.4336 h 2.82812 v -2.3438 c 0,-3.9744 0.50331,-7.3154 1.4375,-10.0078 0.97091,-2.5377 2.52295,-4.2798 4.79883,-5.5429 2.25571,-1.2014 5.91962,-1.9707 11.0625,-1.9707 h 22.39258 c 5.39018,0 10.69424,-0.4883 15.89648,-1.4629 5.38862,-0.9128 10.33708,-2.498 14.78125,-4.7598 4.56521,-2.3233 8.23596,-5.5487 10.90821,-9.5508 2.84337,-4.1155 4.18945,-9.1232 4.18945,-14.9004 0,-3.1888 -0.34822,-6.1033 -1.07227,-8.748 -0.5209,-1.9026 -1.24197,-3.666 -2.16797,-5.2813 -2.0551,-3.8228 -5.00827,-6.9518 -8.80468,-9.2363 -3.63426,-2.3194 -7.888,-3.949 -12.66016,-4.8769 h -0.002 -0.002 c -4.57541,-0.9072 -9.38318,-1.3594 -14.40429,-1.3594 h -0.57422 v -14.9375 h 15.74023 5.51953 v -2.9336 -3.7617 -6.1075 h -2.96875 c -3.12853,0 -5.60571,-0.4879 -7.5664,-1.3593 -1.72458,-0.7978 -2.36133,-1.6842 -2.36133,-3.8184 0,-1.0195 0.37784,-1.9494 1.38867,-3.0273 0.89247,-0.9516 2.47748,-1.8859 4.97852,-2.6465 2.40566,-0.7315 5.6347,-1.1485 9.65625,-1.1485 4.67008,0 9.12401,0.6864 13.43359,2.0723 4.13112,1.3286 7.41315,3.4676 10.04883,6.5703 2.49925,2.942 3.87695,7.0479 3.87695,12.5196 v 39.8496 23.623 h 16.71289 v -68.7617 c 0,-6.6597 -1.21671,-12.4261 -3.77539,-17.2695 -1.41157,-2.7757 -3.14827,-5.2742 -5.2207,-7.4707 -1.46852,-1.5564 -3.10731,-2.9587 -4.90234,-4.2012 -4.25147,-3.0198 -9.10069,-5.2245 -14.46289,-6.5684 -5.37249,-1.4008 -10.95341,-2.1015 -16.70313,-2.1015 z m -280.7793,1.1855 h 0.002 c -9.76959,0 -18.75677,1.3821 -26.88086,4.1758 -8.09199,2.7827 -15.06565,6.7425 -20.82422,11.8477 -5.65084,5.0155 -10.01155,10.9801 -13.05859,17.8242 h -0.002 -0.002 c -2.06384,4.5853 -3.42487,9.4734 -4.08984,14.6504 -0.31994,2.4907 -0.47852,5.0508 -0.47852,7.6738 0,2.5599 0.15913,5.0913 0.47852,7.5977 0.68006,5.3371 2.08708,10.5495 4.21484,15.623 2.88247,6.873 6.87722,13.3647 11.75977,19.5371 -1.36551,0.7516 -2.76983,1.4769 -4.03125,2.2988 l -0.0176,0.01 -0.0156,0.012 c -4.19582,2.817 -7.5565,5.971 -10.01562,9.4551 l -0.008,0.01 -0.01,0.01 c -0.64043,0.9295 -1.20119,1.8832 -1.68164,2.8555 -1.39226,2.8173 -2.08984,5.8019 -2.08984,8.8887 0,3.4665 0.675,6.6216 2.10351,9.4082 0.45308,0.8838 0.98214,1.7269 1.58203,2.5273 l 0.0137,0.02 0.0156,0.02 c 2.55715,3.2695 6.14785,5.7878 10.56055,7.4433 h 0.01 0.0117 c 4.50051,1.6493 9.72306,2.4336 15.60156,2.4336 9.46257,0 18.44262,-1.2567 26.88477,-3.7793 4.0586,-1.1618 7.90661,-2.5826 11.59766,-4.1933 4.48482,1.8586 8.98106,3.4468 13.48828,4.6777 7.69682,2.1803 14.98959,3.2949 21.87305,3.2949 6.14004,0 11.4489,-0.7739 15.89062,-2.4375 1.22958,-0.4386 2.39204,-0.9347 3.48047,-1.4941 2.78791,-1.4329 5.09425,-3.279 6.81641,-5.4863 2.38079,-3.0516 3.57226,-6.6023 3.57226,-10.4414 0,-5.0409 -1.33548,-9.6616 -4.03906,-13.7149 -1.57607,-2.3629 -3.51619,-4.5354 -5.80274,-6.5039 -1.56871,-1.3505 -3.29917,-2.6027 -5.18554,-3.7598 -2.7615,-1.7292 -5.86366,-3.2132 -9.15625,-4.5546 2.48409,-6.2771 3.77343,-12.6833 3.77343,-19.1934 0,-6.3919 -1.02709,-12.3117 -3.10546,-17.7363 -1.98499,-5.427 -4.99164,-10.188 -9.02344,-14.2032 -4.04088,-4.1021 -9.0415,-7.275 -14.89063,-9.4531 -5.9117,-2.2802 -12.71379,-3.3887 -20.31445,-3.3887 -8.18351,0 -15.15258,1.2215 -20.79297,3.8204 l -0.01,0.01 -0.0117,0.01 c -5.38676,2.5289 -9.552,5.8681 -12.2793,9.957 l -0.0117,0.02 -0.01,0.016 c -2.56939,4.0061 -3.87304,8.3336 -3.87304,12.8554 0,4.2464 1.08709,8.0921 3.34179,11.3868 2.22325,3.2487 5.3692,5.8559 9.28516,7.6992 3.9142,1.8424 8.26902,2.7754 12.87695,2.7754 4.52227,0 8.7797,-0.7335 12.66211,-2.2129 3.96335,-1.5103 7.21052,-3.8907 9.5586,-6.9805 2.5085,-3.176 3.71094,-7.0332 3.71094,-11.373 0,-2.6214 -0.58705,-5.0133 -1.46094,-7.2813 0.9925,1.5916 1.80378,3.4305 2.39648,5.5723 l 0.004,0.018 0.006,0.016 c 1.34463,4.535 2.04492,10.0803 2.04492,16.6035 0,4.6786 -0.52746,9.5147 -1.48633,14.4824 -5.80019,-0.676 -11.71656,-1.0761 -17.79687,-1.0761 -6.32689,0 -12.56446,0.5261 -18.70313,1.5761 h -0.002 -0.002 -0.002 -0.002 -0.002 c -4.79233,0.7709 -9.33989,1.9162 -13.72265,3.3028 -3.59991,-4.7296 -6.56557,-9.5768 -8.68945,-14.5879 l -0.002,-0.01 h -0.002 c -2.35726,-5.6427 -3.52344,-11.2856 -3.52344,-16.9707 0,-6.6741 1.14454,-12.424 3.35938,-17.2734 h 0.004 l 0.002,-0.01 c 2.23185,-4.9607 5.39433,-9.0231 9.50976,-12.291 h 0.002 c 4.24501,-3.374 9.21248,-5.8928 15.00196,-7.5918 5.79351,-1.7002 12.36387,-2.5684 19.75,-2.5684 7.3861,0 14.21255,0.8654 20.51953,2.584 l 0.0176,0.01 0.0156,0.01 c 6.27133,1.6347 11.71874,4.1363 16.42969,7.5274 4.65697,3.3521 8.26641,7.6021 10.85938,12.8672 l 0.006,0.014 0.008,0.012 c 2.65314,5.2076 4.0293,11.5125 4.0293,18.9531 v 29.2637 h 2.84765 13.58008 v -30.4395 c 0,-10.7737 -1.62819,-20.1182 -4.97461,-28.0391 l -0.002,-0.01 c -1.69216,-4.0438 -3.74967,-7.7352 -6.18164,-11.0664 -2.34899,-3.2175 -5.04916,-6.0983 -8.09571,-8.625 -6.15512,-5.1048 -13.49808,-8.8704 -21.90625,-11.252 -8.27325,-2.4481 -17.38374,-3.6582 -27.29101,-3.6582 z m 123.45312,3.5293 c -4.33018,0 -8.30679,1.3444 -11.33789,3.8516 -3.09688,2.4853 -4.81445,5.7087 -4.81445,9.1914 0,3.4699 1.64622,6.6868 4.6543,9.1816 3.03304,2.5155 7.01785,3.8613 11.35547,3.8613 4.2603,0 8.21262,-1.3463 11.31836,-3.83 3.09769,-2.4774 4.83398,-5.6659 4.83398,-9.0957 0,-3.5467 -1.7051,-6.8155 -4.81445,-9.3106 -3.01812,-2.4962 -6.94279,-3.8496 -11.19532,-3.8496 z m 441.50783,0 c -4.33026,0 -8.30682,1.3444 -11.33789,3.8516 -3.09686,2.4853 -4.81446,5.7087 -4.81446,9.1914 0,3.4699 1.6482,6.6868 4.65625,9.1816 3.03308,2.5155 7.01594,3.8613 11.35352,3.8613 4.26033,0 8.21257,-1.3463 11.31836,-3.83 3.0977,-2.4774 4.83398,-5.6659 4.83398,-9.0957 0,-3.5467 -1.70699,-6.8155 -4.8164,-9.3106 -3.01814,-2.4962 -6.94088,-3.8496 -11.19336,-3.8496 z m 463.75977,0 c -4.3298,0 -8.30699,1.3429 -11.33789,3.8496 -3.0977,2.4855 -4.8125,5.7103 -4.8125,9.1934 0,3.4699 1.6462,6.6868 4.6543,9.1816 3.033,2.5155 7.01787,3.8613 11.35547,3.8613 4.2604,0 8.21051,-1.3463 11.31641,-3.83 3.0976,-2.4774 4.83398,-5.6659 4.83398,-9.0957 0,-3.5486 -1.71007,-6.8189 -4.82227,-9.3145 -3.0174,-2.493 -6.9376,-3.8457 -11.1875,-3.8457 z m 233.58009,0 c -4.3269,0 -8.29833,1.3427 -11.32813,3.8457 -3.0999,2.4856 -4.82226,5.7114 -4.82226,9.1973 0,3.4699 1.64619,6.6868 4.65429,9.1816 3.0331,2.5155 7.01777,3.8613 11.35547,3.8613 4.2602,0 8.21256,-1.3463 11.31836,-3.83 3.0977,-2.4774 4.83203,-5.6659 4.83203,-9.0957 0,-3.5467 -1.70515,-6.8155 -4.81445,-9.3106 -3.0182,-2.4961 -6.94261,-3.8496 -11.19531,-3.8496 z m 353.06446,0 c -4.3302,0 -8.30494,1.3444 -11.33594,3.8516 -3.0968,2.4854 -4.81445,5.7087 -4.81445,9.1914 0,3.4699 1.6462,6.6868 4.6543,9.1816 3.033,2.5155 7.01766,3.8613 11.35546,3.8613 4.2603,0 8.21266,-1.3463 11.31836,-3.83 3.0978,-2.4774 4.83399,-5.6659 4.83399,-9.0957 0,-3.5467 -1.70681,-6.8155 -4.81641,-9.3106 -3.018,-2.4962 -6.94281,-3.8496 -11.19531,-3.8496 z m -476.41407,0.8223 h 0.004 c 2.6315,0.1493 4.43542,0.7537 5.66992,1.9726 l 0.0215,0.021 0.0254,0.02 c 1.5969,1.5051 2.41211,3.3596 2.41211,5.9747 0,1.7102 -0.48833,2.8875 -1.39063,3.8496 l -0.01,0.01 -0.01,0.01 c -0.6975,0.7564 -1.41847,1.0781 -3.13867,1.0781 -1.3644,0 -2.021,-0.2822 -2.9707,-1.5762 -0.9915,-1.351 -1.57227,-3.1698 -1.57227,-5.5996 0,-1.4601 0.20974,-3.0638 0.64844,-4.8105 0.079,-0.3132 0.21405,-0.6312 0.31055,-0.9453 z m -14.85938,6.4648 c -0.035,0.5472 -0.11719,1.0984 -0.11719,1.6426 0,3.5898 0.83442,6.9893 2.51172,10.1191 l 0.0195,0.035 0.0195,0.035 c 1.8186,3.1051 4.55606,5.6892 8.06446,7.629 l 0.0391,0.023 0.041,0.021 c 2.1799,1.1167 4.72265,1.7912 7.44335,2.2402 h -1.56445 -3.82422 c -2.6953,0 -5.15129,-0.4643 -7.49609,-1.3945 -2.1438,-0.9617 -3.90428,-2.3684 -5.36328,-4.375 -1.2983,-1.9103 -2.0293,-4.4167 -2.0293,-7.6367 0,-3.1511 0.68676,-5.7861 1.97266,-7.9981 0.0816,-0.1303 0.19859,-0.2159 0.2832,-0.3418 z m 210.19727,20.336 -13.92187,7.039 1.67968,2.0391 c 2.5695,3.1202 4.66191,6.1423 6.28711,9.0625 1.6265,2.9228 2.88796,5.9143 3.78906,8.9785 v 0.01 0.01 c 0.8815,2.9245 1.33204,6.1408 1.33204,9.6582 0,5.2032 -0.8269,9.5141 -2.3711,12.9297 l -0.01,0.021 -0.01,0.018 c -1.4986,3.5096 -3.37762,5.965 -5.44922,7.4922 -2.175,1.6035 -4.09809,2.2285 -6.05859,2.2285 -1.8948,0 -2.41146,-0.2935 -2.97656,-1.1641 -0.6189,-1.1699 -1.13868,-3.5987 -1.13868,-7.0683 v -25.0391 c 0,-5.6995 -1.70257,-10.5886 -5.26757,-14.3613 -3.3442,-3.7143 -7.88365,-6.4974 -13.40235,-8.2774 -5.4601,-1.7611 -11.44843,-2.6269 -17.89453,-2.6269 -5.7725,0 -11.25373,0.7444 -16.39063,2.248 h -0.01 -0.0117 c -5.099,1.5224 -9.36692,3.821 -12.63672,6.8828 -1.2208,1.1475 -2.16225,2.4505 -2.93555,3.8282 -1.6001,-1.7591 -3.33643,-3.3816 -5.30273,-4.7676 -3.6935,-2.6039 -7.83781,-4.595 -12.37891,-5.9453 -0.4515,-0.1344 -0.90321,-0.2605 -1.34961,-0.3789 -4.9105,-1.3282 -10.0293,-1.9942 -15.3164,-1.9942 -6.1727,0 -11.84595,0.7833 -16.96875,2.3848 -0.6291,0.1966 -1.24903,0.4051 -1.85743,0.625 -5.4734,1.934 -10.19554,4.786 -14.05664,8.4902 -3.8478,3.6137 -6.77723,7.8955 -8.77343,12.7793 v 0.012 0.012 c -0.9194,2.3277 -1.60968,4.7731 -2.08008,7.3281 -0.5023,2.7293 -0.75391,5.5864 -0.75391,8.5683 0,2.6362 0.25237,5.1846 0.75977,7.6446 0.6639,3.2176 1.76559,6.2825 3.30859,9.1738 v 0.01 0.01 c 2.7274,5.0264 6.64529,9.1453 11.67969,12.2129 l 0.0254,0.016 0.0273,0.016 c 5.2109,3.0252 11.38198,4.5371 18.20508,4.5371 5.9109,0 11.21366,-0.8763 15.81446,-2.6973 l 0.0234,-0.01 0.0234,-0.01 c 4.5924,-1.9044 8.26008,-4.7146 10.79688,-8.2988 2.6633,-3.6298 3.94726,-7.968 3.94726,-12.8438 0,-3.9087 -0.93291,-7.564 -2.82031,-10.8711 -1.9056,-3.4166 -4.80363,-6.1901 -8.54883,-8.1465 -3.8279,-2.0779 -8.48004,-3.0761 -13.71094,-3.0761 -6.1726,0 -11.6196,1.4105 -15.9375,4.2753 -2.9827,1.979 -5.44174,4.4112 -7.39844,7.211 0.1387,-5.3011 1.34155,-9.7494 3.59375,-13.3516 2.4269,-3.882 5.6564,-6.7119 9.8086,-8.6797 h 0.0117 l 0.01,-0.01 c 4.2644,-2.0513 9.15976,-3.0918 14.88086,-3.0918 6.3636,0 11.38926,0.9687 15.19336,2.7519 3.8655,1.812 6.60853,4.2901 8.45703,7.6348 l 0.01,0.01 v 0.012 c 1.8633,3.3014 2.85156,7.3757 2.85156,12.2871 v 36.3183 h 24.3711 8.21484 v -53.246 c 0,-2.9704 0.77248,-4.6583 1.48438,-5.3008 1.085,-0.8857 2.23282,-1.2871 4.04882,-1.2871 1.9225,0 2.89755,0.3921 3.78125,1.2714 l 0.0293,0.029 0.0293,0.027 c 0.9427,0.8796 1.55468,2.2292 1.55468,4.4355 v 29.9766 c 0,4.8014 0.9485,9.0939 2.9336,12.8203 2.0313,3.8126 5.4123,6.8423 9.875,8.8691 h 0.01 l 0.0137,0.01 c 4.6018,2.0414 10.26923,2.9805 16.92383,2.9805 7.3547,0 13.96092,-1.5304 19.54882,-4.6153 5.692,-3.0908 10.07084,-7.6555 13.08204,-13.4707 3.1307,-5.8635 4.63671,-12.8532 4.63671,-20.9316 0,-4.0831 -0.54587,-7.988 -1.63867,-11.7031 -0.9913,-3.7666 -2.51808,-7.4484 -4.58008,-11.0352 v -0.01 c -2.053,-3.6475 -4.58288,-7.3164 -7.58398,-11.0098 z m -806.03713,0.7031 c -8.19749,0 -15.78592,0.9715 -22.72265,2.9414 h -0.002 -0.002 c -0.002,0 -0.004,0 -0.004,0 h -0.002 -0.002 c -0.002,-1e-4 -0.004,-1e-4 -0.004,0 -6.82913,1.8905 -12.80048,4.6704 -17.82031,8.334 -5.00601,3.6536 -8.89801,7.9736 -11.61328,12.8945 -2.72737,4.9428 -4.08399,10.3515 -4.08399,16.1387 0,6.0843 1.34572,11.7168 4.06836,16.8183 l 0.004,0.01 0.004,0.01 c 2.72701,5.026 6.64098,9.1451 11.67579,12.2129 l 0.0273,0.016 0.0254,0.016 c 5.21085,3.0252 11.38196,4.5371 18.20508,4.5371 6.01525,0 11.38831,-0.9192 16.00586,-2.834 4.59868,-1.9069 8.26988,-4.7203 10.80664,-8.3105 2.64621,-3.6903 3.9375,-8.0232 3.9375,-12.8301 0,-3.9847 -0.98566,-7.6585 -2.98828,-10.9082 -1.91058,-3.3299 -4.79996,-6.0462 -8.51953,-7.9902 -3.81785,-2.0741 -8.42497,-3.0782 -13.57227,-3.0782 -4.64043,0 -8.8795,0.8248 -12.55078,2.5215 -3.57846,1.5766 -6.61713,3.792 -9.02149,6.5664 l -0.008,0.01 -0.008,0.01 c -0.63974,0.7477 -1.13858,1.5995 -1.69336,2.4101 0.14588,-3.8202 1.03845,-7.238 2.84375,-10.2324 2.00485,-3.3255 4.66895,-6.1009 8.05078,-8.4023 h 0.008 c 3.51708,-2.4065 7.45274,-4.2181 11.86719,-5.4629 4.53545,-1.2524 9.13004,-1.875 13.83008,-1.875 6.58813,0 12.39348,0.8947 17.48633,2.6425 l 0.0195,0.012 0.0215,0.01 c 0.53876,0.1772 1.06826,0.3636 1.58985,0.5567 2.09781,0.7769 3.99766,1.7253 5.8125,2.7558 -2.90931,3.1853 -5.42497,6.5798 -7.27539,10.3067 l -0.008,0.01 -0.008,0.01 c -2.68441,5.5248 -4.03125,11.326 -4.03125,17.3359 0,4.9232 0.83881,9.3913 2.57617,13.375 l 0.0117,0.029 0.0117,0.029 c 1.87854,3.9814 4.89632,7.2596 8.9336,9.6387 4.17353,2.4594 9.49266,3.6074 15.67382,3.6074 6.07802,0 11.46433,-1.1076 15.94532,-3.4082 4.43471,-2.2769 7.89642,-5.5673 10.27343,-9.6816 2.3818,-4.1224 3.53516,-8.84 3.53516,-14.0625 0,-6.0863 -1.22082,-11.7226 -3.69727,-16.8555 -0.38641,-0.8009 -0.80366,-1.5887 -1.25,-2.3633 l -0.01,-0.014 c -2.35222,-4.1352 -5.46152,-7.8467 -9.24024,-11.1426 0.0996,-0.031 0.1909,-0.071 0.29102,-0.1016 l 0.0176,-0.01 0.0176,-0.01 c 5.59919,-1.769 11.8115,-2.666 18.69531,-2.666 h 4.82422 v 17.166 42.668 h 33.01172 v -42.6661 -17.166 h 15.16797 v -12.8027 h -54.13477 c -9.45985,0 -18.00707,1.255 -25.57422,3.8125 -2.4193,0.7926 -4.6502,1.7491 -6.83789,2.7441 -3.67382,-1.6184 -7.58902,-3.0119 -11.82617,-4.0996 -2.97939,-0.7737 -6.0643,-1.4058 -9.25196,-1.8945 -5.53202,-0.8479 -11.37345,-1.2676 -17.52148,-1.2676 z m 227.62696,0 c -9.5114,0 -18.18217,1.0868 -25.98047,3.2949 -7.6731,2.1212 -14.34901,5.167 -19.94141,9.1426 -5.4544,3.8661 -9.72327,8.3139 -12.73437,13.3086 l -0.01,0.016 -0.01,0.014 c -1.0557,1.811 -1.92318,3.6645 -2.59961,5.5586 -1.1956,3.3478 -1.79297,6.8209 -1.79297,10.3906 0,5.9355 1.34951,11.3893 4.08984,16.2715 v 0.01 l 0.01,0.01 c 2.7414,4.7999 6.67469,8.7217 11.71289,11.6211 l 0.0293,0.014 0.0273,0.016 c 5.2165,2.8555 11.4002,4.2676 18.2832,4.2676 0.026,0 0.0577,1e-4 0.0957,0 5.9768,-0.01 11.3153,-0.9293 15.9082,-2.834 l 0.0234,-0.012 0.0234,-0.01 c 4.5868,-1.9884 8.20718,-4.844 10.64648,-8.4473 h 0.002 0.002 0.002 c 9.1e-4,0 0.003,2e-4 0.004,0 2.5236,-3.6702 3.76562,-7.9062 3.76562,-12.5507 0,-3.9891 -0.98687,-7.6945 -2.98047,-11.0118 -1.9108,-3.3356 -4.80449,-6.0575 -8.52929,-8.0039 -0.8043,-0.437 -1.64373,-0.8306 -2.51563,-1.1738 -3.2728,-1.2884 -6.99099,-1.9043 -11.05469,-1.9043 -3.9577,0 -7.64496,0.6215 -10.94726,1.8984 -0.4985,0.1928 -0.98695,0.4002 -1.46485,0.6211 -3.4948,1.5809 -6.4783,3.7985 -8.8789,6.5684 -0.6402,0.7387 -1.12985,1.5727 -1.68555,2.3652 0.2694,-2.2991 0.77804,-4.5036 1.77734,-6.5449 0.3745,-0.7651 0.80205,-1.517 1.28125,-2.2519 2.3539,-3.5426 5.55637,-6.5677 9.69727,-9.125 l 0.0137,-0.01 0.0156,-0.01 c 4.1701,-2.6491 8.91848,-4.6761 14.30078,-6.0898 h 0.0137 0.0156 c 5.4687,-1.487 11.2527,-2.2363 17.4004,-2.2363 6.2603,0 12.11133,0.7147 17.58593,2.1289 l 0.0176,0.01 h 0.0234 c 5.4537,1.3347 10.11154,3.3141 14.05664,5.9317 3.9131,2.5962 6.931847,5.8073 9.123047,9.7324 l 0.0098,0.018 0.0098,0.017 c 0.3494,0.6018 0.673904,1.2205 0.970704,1.8575 1.606,3.447 2.435547,7.409 2.435547,11.9336 0,3.5985 -0.471438,6.4306 -1.273438,8.4257 -0.8315,2.0692 -1.876028,3.3087 -2.861328,3.9336 -1.1397,0.7229 -2.287994,1.045 -3.808594,1.045 -1.5216,0 -2.3173,-0.3433 -3.3125,-1.545 -0.9993,-1.2819 -1.654298,-3.2717 -1.654298,-6.0996 0,-1.46 0.210551,-3.1577 0.656251,-5.08 0.4313,-1.8596 1.180166,-3.9156 2.259766,-6.1543 l 0.947265,-1.9707 -16.609372,-7.2051 -1.4375,1.6269 c -4.7446,5.3806 -8.23409,10.5342 -10.42969,15.4961 v 0.01 c -2.17,4.8284 -3.29492,9.4119 -3.29492,13.7441 0,3.5522 0.7196,6.8807 2.1875,9.9239 l 0.0176,0.037 0.0215,0.037 c 0.3064,0.5761 0.638,1.1423 1,1.6972 1.4826,2.2734 3.41436,4.3218 5.75586,6.125 1.4961,1.1524 3.15154,2.1969 4.93164,3.1543 -1.8174,0.5955 -3.57027,1.3228 -5.23437,2.2012 l -0.0215,0.012 -0.0254,0.016 c -3.233,1.7876 -6.31971,3.7785 -9.25391,5.9687 l -0.0176,0.012 -0.0195,0.014 c -2.7149,2.0964 -5.42708,4.114 -8.13868,6.0527 l -0.0215,0.014 -0.0195,0.016 c -2.5692,1.9105 -5.24339,3.4343 -8.02539,4.5879 l -0.0156,0.01 -0.0156,0.01 c -2.4997,1.07 -5.3265,1.6192 -8.625,1.6192 -2.73,0 -4.93362,-0.3538 -6.66602,-0.9785 -1.737,-0.6263 -2.87897,-1.4371 -3.69727,-2.5117 -0.8469,-1.112 -1.26367,-2.3126 -1.26367,-3.8028 0,-1.9489 0.60251,-3.2659 1.78321,-4.375 1.3001,-1.0581 2.60293,-1.5078 4.46093,-1.5078 2.1546,0 3.66599,0.482 5.05079,1.5156 l 0.0234,0.018 0.0274,0.018 c 1.3892,0.9874 2.58004,2.6831 3.33984,5.3437 l 0.75781,2.6485 3.04688,-1.0117 c 2.7271,-0.9048 5.12129,-2.2928 7.09179,-4.0957 2.285,-1.9214 3.47266,-4.544 3.47266,-7.3672 0,-2.5164 -1.01099,-4.9052 -2.92969,-6.7969 -1.7661,-1.7558 -4.14759,-3.0765 -6.96289,-3.9746 l -0.0449,-0.016 -0.0449,-0.012 c -2.7856,-0.7996 -5.80161,-1.1855 -9.00391,-1.1855 -5.0336,0 -9.55598,0.9063 -13.36328,2.8008 l -0.0254,0.012 -0.0254,0.014 c -3.6681,1.9122 -6.58809,4.4123 -8.61719,7.4238 l -0.01,0.014 -0.01,0.012 c -2.0055,3.0641 -3.0332,6.3811 -3.0332,9.8183 0,4.537 1.37722,8.599 4.19922,11.9297 l 0.0137,0.018 0.0137,0.018 c 2.8628,3.2536 6.77951,5.7289 11.53711,7.3613 4.8375,1.7053 10.28157,2.5332 16.25977,2.5332 6.1971,0 11.66869,-0.6885 16.40429,-2.1367 4.6482,-1.3163 8.77077,-3.059 12.32227,-5.2422 3.5126,-2.026 6.70194,-4.2204 9.55664,-6.5879 2.8182,-2.1819 5.50157,-4.2887 8.04297,-6.3183 2.384498,-1.9045 4.873954,-3.4584 7.472654,-4.6836 2.4023,-1.0584 5.061925,-1.5957 8.140625,-1.5957 h 11.048829 V 4735.047 H -90.17969 c -5.0496,0 -9.287087,-0.7321 -12.80469,-2.1192 -2.8988,-1.1747 -5.12998,-2.6883 -6.83398,-4.58 -0.3205,-0.3557 -0.62155,-0.7271 -0.90625,-1.1133 -1.781,-2.4172 -2.70313,-5.2788 -2.70313,-8.7676 0,-0.722 0.10882,-1.4975 0.19922,-2.2637 0.4425,1.7044 1.05886,3.3449 1.91406,4.8887 1.8423,3.3256 4.8439,6.0339 8.7754,7.9727 4.082895,2.0135 9.232033,2.916 15.335933,2.916 5.6789,0 10.892128,-0.9788 15.486328,-2.9707 h 0.01172 l 0.0098,-0.01 c 4.7147,-2.0854 8.498413,-5.1891 11.195313,-9.1465 2.7548,-4.0424 4.050781,-8.9698 4.050781,-14.6718 0,-5.742 -1.097278,-11.0432 -3.330078,-15.8555 -0.7245,-1.5617 -1.56965,-3.0709 -2.53125,-4.5254 -3.7943,-5.959 -9.125473,-10.9587 -15.888673,-14.918 -6.7218,-3.9353 -14.505363,-6.8711 -23.289054,-8.8144 -8.6747,-1.94 -17.99712,-2.9024 -27.94922,-2.9024 v -0.027 z m 690.25588,0.1133 v 0 h -0.008 c -8.1007,6e-4 -15.41911,0.9313 -21.91601,2.8379 h -0.01 -0.01 c -6.3771,1.9007 -11.89152,4.6604 -16.44532,8.2695 -4.5493,3.6052 -8.00731,7.9519 -10.32031,12.9512 -2.3113,4.9192 -3.44922,10.3155 -3.44922,16.1309 0,6.0844 1.34556,11.7168 4.06836,16.8183 v 0.01 0.01 c 2.7272,5.0264 6.64509,9.1453 11.67969,12.2129 l 0.0254,0.016 0.0254,0.016 c 5.2109,3.0252 11.38178,4.5371 18.20508,4.5371 6.0152,0 11.38671,-0.9193 16.00391,-2.834 4.6019,-1.9084 8.27715,-4.7254 10.81445,-8.3203 2.6428,-3.6891 3.93164,-8.0174 3.93164,-12.8203 0,-3.9847 -0.98578,-7.6585 -2.98828,-10.9082 -1.9104,-3.3293 -4.79963,-6.0459 -8.51953,-7.9902 -3.8183,-2.0743 -8.42868,-3.0782 -13.57618,-3.0782 -4.6388,0 -8.87657,0.824 -12.54687,2.5196 -3.5796,1.5766 -6.62049,3.7914 -9.02539,6.5664 v 0.01 h -0.01 c -0.5658,0.6611 -1.0968,1.3488 -1.5957,2.0586 -0.058,0.083 -0.1007,0.1779 -0.1582,0.2618 0.1477,-5.27 1.3543,-9.6923 3.5957,-13.2793 2.528,-3.9711 5.82152,-6.8932 9.98242,-8.9356 4.1873,-2.0553 8.83685,-3.0801 14.15235,-3.0801 6.1233,0 11.20901,1.0539 15.44531,3.0918 l 0.0176,0.01 0.0195,0.012 c 4.2378,1.9681 7.44138,4.782 9.76758,8.6406 l 0.0117,0.016 0.01,0.016 c 2.3958,3.8324 3.64844,8.535 3.64844,14.2031 0,4.9371 -0.59547,9.3732 -1.75977,13.3106 -1.1865,3.9335 -2.72954,7.5435 -4.62304,10.8339 l -0.5918,1.0235 4.7793,8.0918 h 72.48437 v -72.6367 h -32.58789 v 59.832 h -17.40039 c 2.6705,-2.6382 5.06992,-5.3429 6.85742,-8.1953 v -0.01 c 2.89,-4.5396 4.29102,-9.8372 4.29102,-15.7812 0,-6.1622 -1.39245,-11.6065 -4.27735,-16.2286 -2.7372,-4.6125 -6.6327,-8.4812 -11.5957,-11.5097 -4.83933,-3.0099 -10.42655,-5.2156 -16.68945,-6.6172 -6.2059,-1.3889 -12.78389,-2.081 -19.71289,-2.082 z m -558.3144699,0 c -8.0982,8e-4 -15.4091971,0.93 -21.9042971,2.836 h -0.0098 -0.01172 c -6.3769,1.9007 -11.891313,4.6604 -16.445313,8.2695 -4.549,3.6049 -8.006912,7.9515 -10.320312,12.9512 -1.1068,2.3556 -1.946632,4.8207 -2.519532,7.3886 -0.6237,2.7946 -0.93164,5.7098 -0.93164,8.7403 0,6.0849 1.347912,11.7192 4.070312,16.8203 v 0.01 0.01 c 2.727,5.0259 6.642935,9.145 11.677735,12.2129 l 0.02344,0.014 0.02734,0.017 c 5.2108,3.0252 11.381779,4.5372 18.205079,4.5372 6.0151998,0 11.3883595,-0.9192 16.00585951,-2.834 4.60239999,-1.9086 8.27550029,-4.724 10.81250049,-8.3184 2.6426,-3.6891 3.93164,-8.0194 3.93164,-12.8223 0,-3.9846 -0.985681,-7.6565 -2.988281,-10.9062 -1.9109,-3.3303 -4.8014375,-6.0497 -8.5234375,-7.9941 -3.81670004,-2.0723 -8.4231597,-3.0762 -13.5683597,-3.0762 -4.0316998,0 -7.7587248,0.6176 -11.0781248,1.8965 -0.4881,0.188 -0.969007,0.39 -1.441407,0.6074 h -0.002 c -0.001,-1e-4 -0.0028,-2e-4 -0.0078,0 -3.5885,1.5771 -6.638429,3.7968 -9.048829,6.5781 v 0.01 l -0.0098,0.01 c -0.6662,0.7786 -1.189572,1.6631 -1.763672,2.5098 0.058,-2.5553 0.338837,-4.9391 0.898437,-7.0918 0.6129,-2.3567 1.515519,-4.4725 2.699219,-6.3691 2.5292,-3.9777 5.828341,-6.9025 9.994141,-8.9473 4.1877,-2.0555 8.834791,-3.082 14.1503909,-3.082 6.12359997,0 11.211066,1.056 15.447266,3.0937 l 0.019531,0.01 0.017578,0.01 c 4.2373001,1.968 7.4370721,4.7833 9.7636721,8.6425 l 0.01172,0.014 0.0098,0.018 c 2.3962,3.8327 3.652344,8.5355 3.652344,14.2031 0,4.9329 -0.597066,9.365 -1.759766,13.3008 -1.1871,3.9378 -2.731453,7.5501 -4.626953,10.8437 l -0.589844,1.0235 4.779297,8.0937 h 72.484377 v -72.6386 H 61.04297 v 59.832 H 43.642579 c 2.6749,-2.6426 5.076235,-5.3516 6.865235,-8.209 2.8872,-4.5385 4.287109,-9.8331 4.287109,-15.7734 0,-6.1617 -1.390291,-11.6059 -4.275391,-16.2285 -2.7386,-4.6148 -6.637815,-8.4868 -11.603515,-11.5157 -4.838,-3.0079 -10.425348,-5.2123 -16.685548,-6.6133 -6.210537,-1.3898 -12.7955691,-2.0819 -19.7304689,-2.082 z m -811.1347801,0.586 v 72.6367 h 16.28711 v -59.834 h 10.07617 v 59.834 h 32.58594 v -21.3907 c 0,-1.9696 0.32249,-3.4274 0.76562,-4.3437 0.5513,-0.9483 1.20049,-1.5624 2.01563,-2.0039 0.95529,-0.4676 1.99213,-0.709 3.32031,-0.709 2.82184,0 4.30967,0.6881 5.66601,2.5234 1.41983,1.9213 2.27735,4.7753 2.27735,8.6485 0,5.3108 -1.05346,9.4424 -2.9375,12.4316 l -0.006,0.01 -0.006,0.01 c -1.82758,2.9626 -4.26216,4.8976 -7.54688,6.0937 l -0.0273,0.01 -0.0254,0.01 c -3.41224,1.3114 -7.67209,2.0176 -12.84375,2.0176 h -16.86914 c -5.73427,0 -11.06715,0.4002 -16.00196,1.2188 -5.07696,0.8421 -9.37864,2.3953 -12.74414,4.7363 l -0.0176,0.014 -0.0215,0.014 c -3.59455,2.5965 -5.36328,6.4676 -5.36328,10.9395 0,4.8643 2.33437,9.0117 6.78516,11.4726 l 0.0137,0.01 0.0156,0.012 c 4.34829,2.3441 9.79662,3.4336 16.13868,3.4336 h 2.82812 v -2.3437 c 0,-3.9871 0.50445,-7.3822 1.45117,-10.1699 0.88075,-2.5184 2.39064,-4.2863 4.66992,-5.6231 2.25652,-1.1953 5.90589,-1.9609 11.03516,-1.9609 h 20.83594 c 5.36437,0 10.47706,-0.6209 15.30078,-1.8711 4.89024,-1.2675 9.27392,-3.3194 13.05859,-6.1133 3.94393,-2.7628 6.99537,-6.3474 9.12305,-10.6328 l 0.004,-0.012 0.004,-0.01 c 2.14952,-4.4144 3.18164,-9.5008 3.18164,-15.2207 0,-5.8922 -1.12565,-10.9452 -3.5371,-15.1191 -2.36426,-4.0921 -5.71089,-7.3376 -9.9668,-9.5469 -4.13477,-2.1953 -8.88036,-3.3047 -13.98633,-3.3047 -3.51775,0 -6.74132,0.4735 -9.60547,1.4785 l -0.0195,0.01 -0.0176,0.012 c -2.60936,0.9522 -4.93708,2.2729 -6.94726,3.9121 v -18.459 h 19.13476 v -12.8047 z m 260.65235,0 v 51.0117 c 0,7.3053 2.36766,13.2251 7.39453,17.2129 4.86438,3.859 11.19131,5.8222 18.39843,5.8222 3.34657,0 6.37573,-0.3325 9.08204,-1.0508 2.66557,-0.7074 5.13602,-1.7803 7.36914,-3.1914 l 0.0332,-0.019 0.0332,-0.023 c 0.31966,-0.2146 0.60794,-0.4782 0.91993,-0.7051 v 3.5801 h 82.19531 v -72.6348 h -32.72852 v 59.8301 h -20.84765 v -59.8301 h -31.45508 v 53.8301 c 0,1.187 -0.26005,2.0833 -0.68164,2.7949 -0.42737,0.6456 -0.9162,1.0642 -1.57032,1.3867 -0.61668,0.273 -1.2302,0.4102 -2.00586,0.4102 -1.57634,0 -2.32984,-0.2856 -2.83007,-0.6582 -0.18875,-0.2366 -0.86133,-1.7348 -0.86133,-4.4024 v -53.3613 z m 653.68751,0 v 72.6367 h 16.42969 v -59.834 h 15.03711 v 60.2344 l -26.40821,20.5468 11.11915,9.7618 47.73242,-37.3321 v -53.2109 h 15.30664 V 4658.84 Z m 558.15626,0 v 72.6367 h 16.57032 v -59.834 h 8.51757 v 39.2617 h 30.31837 v -10.4551 c 0,-0.713 0.11417,-1.2493 0.26757,-1.6543 0.2059,-0.3913 0.39925,-0.5917 0.53125,-0.6699 l 0.10352,-0.062 0.0937,-0.064 c 0.1561,-0.111 0.19271,-0.1407 0.57031,-0.1407 1.0875,0 1.16348,0.051 1.60938,0.75 0.4541,0.7114 0.94726,2.5412 0.94726,5.25 0,2.1956 -0.3812,4.202 -1.125,6.0586 -0.7437,1.7786 -1.78885,3.3068 -3.16015,4.6446 v 0.012 h -0.0117 c -1.2415,1.2228 -2.79122,2.2241 -4.72852,3.0332 -1.8397,0.6929 -3.99646,1.0683 -6.57226,1.0683 H 688.9492 v 12.8028 h 99.76759 v -72.6348 h -32.58594 v 59.832 h -13.87696 c 0.2305,-0.1416 0.50497,-0.2425 0.73047,-0.3886 l 0.0215,-0.018 0.0234,-0.014 c 3.3186,-2.2362 5.95128,-4.9424 7.83008,-8.0586 l 0.01,-0.014 0.0117,-0.01 c 1.8981,-3.2358 2.83398,-6.8265 2.83398,-10.666 0,-3.8599 -0.75485,-7.2979 -2.37695,-10.2578 -1.6206,-2.957 -4.12232,-5.3342 -7.35352,-6.9122 -3.241,-1.6607 -7.10666,-2.455 -11.38086,-2.455 -2.8571,0 -5.50982,0.3995 -7.89062,1.2422 -1.7458,0.5827 -3.30112,1.4007 -4.72852,2.3496 v -11.8301 h 19.70117 V 4658.84 Z m -1984.71094,1.041 c -30.5288,30.3619 -61.0535,60.7318 -91.5801,91.0937 l 13.4297,13.4356 c 26.0478,-25.9121 52.0959,-51.8321 78.1465,-77.7442 26.2292,26.0854 52.4532,52.1788 78.6816,78.2715 l 13.4297,-13.4297 c -30.7015,-30.5425 -61.4089,-61.0844 -92.1074,-91.6269 z m 2208.50587,7.4238 1.68945,1.4004 -1.85546,1.5098 v -0.9161 h 0.16601 v -0.5879 z m -1558.39457,4.3379 h 9.79297 v 14.9394 h -9.79297 z m 885.00198,0 h 10.21679 v 14.9394 h -10.21679 z m 613.57423,0 h 9.93359 v 14.9394 h -9.93359 z m -1725.18168,0.957 v 0 c 1.01666,0.912 1.92031,1.8594 2.60351,2.8847 l 0.0137,0.02 0.0156,0.021 c 1.83608,2.6302 2.73633,5.4359 2.73633,8.58 0,2.1741 -0.64389,4.0376 -1.96289,5.7832 -1.06273,1.3391 -2.50844,1.9805 -5.55469,1.9805 -1.92446,0 -3.29991,-0.4907 -4.72266,-1.7187 -1.22203,-1.1245 -2.08789,-3.1422 -2.08789,-6.3946 0,-2.076 0.54933,-4.0039 1.68555,-5.8886 l 0.01,-0.016 0.008,-0.016 c 1.06701,-1.8331 2.73279,-3.3005 5.25195,-4.5137 l 0.0293,-0.016 0.0293,-0.014 c 0.56211,-0.2857 1.28616,-0.4709 1.94531,-0.6953 z m 573.06447,15.2871 c 0.4423,0.6531 0.97197,1.2404 1.36718,1.9297 0.52936,0.9235 1.01817,1.8819 1.46289,2.8711 l 0.008,0.01 c 1.94694,4.2569 2.93359,8.9397 2.93359,14.0976 0,3.7516 -0.74985,6.4616 -1.89453,8.1231 -1.12135,1.6275 -2.13001,2.1113 -4.20703,2.1113 -1.12935,0 -1.87139,-0.2452 -2.70899,-0.8789 -0.90561,-0.7626 -1.74601,-1.9229 -2.39453,-3.6035 -0.63558,-1.6474 -0.99805,-3.8095 -0.99805,-6.457 0,-4.9587 1.10794,-9.4754 3.30665,-13.6329 0.45881,-0.8676 0.95398,-1.7121 1.48828,-2.5312 0.47352,-0.7262 1.10422,-1.3516 1.63672,-2.0391 z m -349.42775,11.4981 h 12.76172 v 6 c 0,0.7983 -0.0409,1.5504 -0.11914,2.2539 -0.22681,2.0381 -0.77312,3.6569 -1.54687,4.8945 l -0.0195,0.029 -0.0195,0.031 c -0.99809,1.7192 -2.31381,2.8499 -4.14257,3.6386 l -0.0195,0.01 -0.0215,0.012 c -1.77689,0.7982 -4.0215,1.2461 -6.87305,1.2461 -3.3734,0 -5.77798,-0.784 -7.79687,-2.3887 -1.95809,-1.6326 -2.98047,-3.7978 -2.98047,-7.0214 0,-0.064 6.7e-4,-0.1313 0.002,-0.2051 0.0279,-1.8911 0.43696,-3.3596 1.10547,-4.4785 0.79288,-1.2486 1.86484,-2.1689 3.39258,-2.8985 1.56956,-0.7058 3.61797,-1.1211 6.27734,-1.1211 z m 885.00002,0 h 13.1875 v 6 c 0,0.9613 -0.0574,1.8536 -0.16992,2.6738 -0.2518,1.8424 -0.77834,3.3234 -1.49804,4.4746 -1.0918,1.7464 -2.47802,2.9047 -4.32032,3.6992 -1.8971,0.8182 -4.20699,1.2657 -7.05859,1.2657 -3.1829,0 -5.59478,-0.7533 -7.73828,-2.336 -2.0043,-1.5556 -3.04102,-3.6377 -3.04102,-6.8398 0,-1.9062 0.40762,-3.455 1.13672,-4.7324 0.8075,-1.3293 1.88063,-2.2708 3.39453,-2.9883 l 0.041,-0.02 0.0449,-0.021 c 1.4372,-0.7379 3.38028,-1.1758 6.02148,-1.1758 z m 613.43166,0 h 13.04492 v 6 c 0,3.115 -0.62531,5.4837 -1.66601,7.1484 l -0.0215,0.029 -0.0176,0.031 c -0.998,1.7192 -2.31192,2.8499 -4.14062,3.6386 l -0.0215,0.01 -0.0195,0.012 c -1.7768,0.7982 -4.02144,1.2461 -6.87304,1.2461 -3.1831,0 -5.59499,-0.7533 -7.73829,-2.3359 -2.0046,-1.5556 -3.04101,-3.6378 -3.04101,-6.8399 0,-1.9146 0.40913,-3.4692 1.14453,-4.75 l 0.01,-0.021 0.0117,-0.02 c 0.7165,-1.3074 1.71491,-2.218 3.22071,-2.9316 l 0.043,-0.02 0.043,-0.019 c 0.2398,-0.123 0.49453,-0.2373 0.76563,-0.3437 1.3339,-0.5238 3.05711,-0.8319 5.25391,-0.8321 z m 46.05859,0.014 c 1.3689,0.017 2.3862,0.2563 3.2168,0.6875 0.6593,0.3421 1.23995,0.8135 1.78125,1.5118 l 0.0137,0.018 0.0137,0.016 c 1.2263,1.5255 2.07422,4.2151 2.07422,8.1035 0,2.3254 -0.47285,4.1618 -1.28515,5.5703 l -0.0117,0.021 -0.01,0.021 c -0.7573,1.3819 -1.66734,2.2585 -2.74414,2.8476 -1.1702,0.5609 -2.35715,0.8321 -3.75195,0.8321 h -4.08399 c 3.2143,-4.2464 4.78711,-9.3255 4.78711,-15.0528 z m -2191.63282,3.3497 c -23.3642,23.2464 -46.7259,46.4848 -70.0879,69.7168 l 13.4297,13.4355 56.6582,-56.3594 57.1875,56.8867 13.4296,-13.4277 c -23.5397,-23.4126 -47.0804,-46.8322 -70.6171,-70.2519 z m 1159.23436,1.2187 v 0 c 1.3525,0 2.12165,0.3065 3.12305,1.414 l 0.0215,0.022 0.0254,0.023 c 0.9091,0.9549 1.51563,2.4558 1.51563,4.7754 0,2.7349 -0.69051,4.5415 -1.69141,5.6309 -0.9433,1.027 -2.17621,1.5449 -4.69531,1.5449 -1.8417,0 -3.6844,-0.5379 -5.75,-1.8476 -0.06,-0.042 -0.11493,-0.094 -0.17383,-0.1368 0.2974,-1.8682 0.63522,-3.6656 1.13672,-5.1445 0.7634,-2.2513 1.7843,-3.8629 2.9082,-4.9219 1.155,-1.0042 2.15878,-1.3613 3.58008,-1.3613 z m -220.83008,0 h 0.006 c 1.22055,0 1.96103,0.2867 2.98047,1.414 l 0.0488,0.053 0.0508,0.051 c 0.99257,0.9775 1.60156,2.3944 1.60156,4.6016 0,2.716 -0.70718,4.5437 -1.81836,5.7363 l -0.008,0.01 -0.008,0.01 c -0.9435,1.027 -2.1744,1.5449 -4.69336,1.5449 -1.78288,0 -3.52077,-0.5565 -5.5039,-2.0039 -0.0231,-0.017 -0.0453,-0.036 -0.0684,-0.053 0.25895,-1.8448 0.57028,-3.617 1.06445,-5.0742 0.76944,-2.2689 1.80111,-3.8947 2.93555,-4.9531 1.06527,-0.994 1.97698,-1.3281 3.41211,-1.3281 z m 363.691413,0 h 0.002 0.0078 c 0.6679,0 1.150603,0.1153 1.658203,0.3691 0.4194,0.2098 0.863019,0.5348 1.324219,1.0449 l 0.04883,0.053 0.05078,0.051 c 0.9925,0.9776 1.603516,2.3944 1.603516,4.6016 0,2.716 -0.707359,4.5437 -1.818359,5.7363 l -0.01172,0.01 -0.0098,0.01 c -0.3458,0.3765 -0.7249,0.6571 -1.1875,0.8867 -0.8009,0.3974 -1.911212,0.6582 -3.507812,0.6582 -1.7829,0 -3.518754,-0.5565 -5.501954,-2.0039 -0.022,-0.017 -0.04341,-0.036 -0.06641,-0.053 0.2589,-1.8447 0.5685,-3.617 1.0625,-5.0742 0.7695,-2.269 1.799194,-3.8948 2.933594,-4.9531 1.06497,-0.9935 1.978319,-1.3277 3.412109,-1.3281 z m 332.230477,0 h 0.002 0.008 c 1.2206,0 1.96302,0.2867 2.98242,1.414 l 0.0488,0.053 0.0508,0.051 c 0.9925,0.9775 1.60156,2.3944 1.60156,4.6016 0,2.7151 -0.70841,4.5429 -1.82031,5.7363 l -0.01,0.01 -0.0117,0.01 c -0.9433,1.027 -2.17446,1.5449 -4.69336,1.5449 -1.7829,0 -3.5206,-0.5565 -5.5039,-2.0039 -0.023,-0.016 -0.0426,-0.037 -0.0645,-0.053 0.2593,-1.8446 0.5679,-3.6155 1.0625,-5.0742 0.7696,-2.2698 1.80205,-3.8954 2.93555,-4.9531 1.06338,-0.9918 1.97882,-1.3277 3.41211,-1.3281 z m 226.06836,0 h 0.002 0.008 c 0.6678,0 1.1496,0.1146 1.6582,0.3691 0.4184,0.2092 0.86272,0.5346 1.32422,1.0449 l 0.0488,0.053 0.0508,0.051 c 0.9927,0.9775 1.60352,2.3943 1.60352,4.6016 0,2.7151 -0.71047,4.543 -1.82227,5.7363 l -0.01,0.01 -0.01,0.01 c -0.3474,0.3782 -0.72425,0.6576 -1.18555,0.8867 -0.7993,0.397 -1.91236,0.6582 -3.50976,0.6582 -1.783,0 -3.5161,-0.556 -5.5,-2.0039 -0.022,-0.017 -0.0434,-0.036 -0.0664,-0.053 0.2589,-1.8447 0.5681,-3.617 1.0625,-5.0742 0.7694,-2.269 1.7993,-3.8947 2.9336,-4.9531 1.06487,-0.9935 1.97781,-1.3277 3.4121,-1.3281 z M -888.01174,4726.77 c 4.71211,0 9.37569,0.3212 14.00781,0.8965 -0.59595,1.3932 -1.13963,2.7977 -1.85937,4.1621 l -0.008,0.016 -0.008,0.014 c -2.43236,4.7817 -5.70328,9.0558 -9.83984,12.8594 -0.63812,0.5868 -1.35266,1.113 -2.03711,1.6621 -6.00264,-3.128 -11.68693,-6.7595 -17.01953,-10.961 -2.18493,-1.7215 -4.12946,-3.5986 -6.11133,-5.4511 2.84713,-0.8246 5.79229,-1.5514 8.95898,-2.0664 4.64447,-0.7553 9.28212,-1.1309 13.91602,-1.1309 z m 38.85547,7.6426 c 0.78999,0.3766 1.6295,0.7259 2.36914,1.1289 3.32058,1.8872 5.80871,3.9686 7.55469,6.2441 l 0.0176,0.02 0.0156,0.021 c 1.79334,2.231 2.64258,4.549 2.64258,7.1641 0,1.8306 -0.48417,3.1525 -1.34766,4.1992 l -0.0488,0.059 -0.043,0.061 c -0.81334,1.1243 -1.96165,1.9449 -3.76563,2.5683 l -0.0449,0.016 -0.043,0.016 c -1.7943,0.6821 -4.17476,1.0801 -7.18555,1.0801 -5.99342,0 -12.25317,-0.8895 -18.80664,-2.7012 h -0.0117 -0.0117 c -0.28665,-0.077 -0.57108,-0.1799 -0.85743,-0.2598 5.28939,-3.7188 10.13033,-7.798 14.1875,-12.4824 1.99941,-2.3085 3.75403,-4.697 5.37891,-7.1289 z m -75.66992,1.1933 c 3.17412,3.0945 6.50236,6.0705 10.06836,8.8614 4.39368,3.4387 8.97741,6.4751 13.66211,9.2949 -5.83537,2.1186 -12.78255,3.2266 -20.9336,3.2266 -4.78589,0 -7.90595,-0.8735 -9.74414,-2.2286 -1.86587,-1.3756 -2.875,-3.3576 -2.875,-6.5918 0,-2.3107 0.72167,-4.371 2.24023,-6.3671 1.67726,-2.0791 3.96855,-4.0307 6.94336,-5.8458 h 0.01 c 0.20244,-0.1197 0.42281,-0.228 0.62891,-0.3457 z m -274.44531,2.3457 c -37.7924,37.6002 -75.5885,75.1933 -113.3867,112.8008 l 13.4316,13.4219 c 33.3172,-33.1431 66.635,-66.2944 99.9551,-99.4375 33.1821,33.0058 66.3608,66.0117 99.5371,99.0176 l 13.4297,-13.4219 c -37.6515,-37.4631 -75.3095,-74.9251 -112.9668,-112.3809 z m -243.3262,0.1582 c -37.6826,37.4847 -75.3681,74.969 -113.0449,112.461 l 13.4297,13.4297 c 33.2045,-33.0348 66.4107,-66.0702 99.6152,-99.0977 33.495,33.3236 66.9934,66.6412 100.4883,99.9649 l 13.4297,-13.4297 c -37.9737,-37.7736 -75.9442,-75.5546 -113.918,-113.3282 z m 243.3262,42.7149 c -30.6306,30.4703 -61.2619,60.9404 -91.8926,91.418 l 13.4297,13.4296 c 26.1554,-26.0204 52.3103,-52.042 78.4629,-78.0625 26.0175,25.8832 52.0352,51.7609 78.0469,77.6368 l 13.4277,-13.4219 c -30.4898,-30.3331 -60.9819,-60.6669 -91.4746,-91 z m -243.3262,0.1582 c -30.5179,30.3619 -61.0347,60.7181 -91.5527,91.0801 l 13.4316,13.4277 c 26.0399,-25.9048 52.0784,-51.8087 78.1211,-77.7207 26.3303,26.201 52.6649,52.3942 78.9981,78.5879 l 13.4296,-13.4297 c -30.8091,-30.6436 -61.6185,-61.2944 -92.4277,-91.9453 z m 1332.70903,11.9023 c -0.6254,0 -0.56323,0.5162 0.13867,1.1485 l 40.382811,36.0195 H -114.0293 c -1.4106,0 -2.56445,1.1459 -2.56445,2.5566 v 6.6426 c 0,1.4107 1.15385,2.5645 2.56445,2.5645 h 6.53906 v 22.4883 h -33.85742 c 10.3407,-5.5108 16.99805,-14.1148 16.99805,-23.7813 0,-16.6368 -19.72408,-30.1308 -44.04688,-30.1308 -15.2955,0 -28.77727,5.3364 -36.67187,13.4394 l 3.41406,22.1543 c 1.654,-5.4345 9.82724,-10.0838 19.99414,-10.9316 11.7375,-0.9799 21.68642,3.4743 22.22852,9.9511 0.5421,6.4699 -8.53894,12.5163 -20.26954,13.4961 -1.2786,0.1044 -2.53866,0.1539 -3.22656,0.1328 h -10.79883 c -2.0779,0 -3.77343,1.7027 -3.77343,3.7735 v 9.4238 c 0,2.0778 1.69553,3.7734 3.77343,3.7734 h 10.22266 c 11.9319,0.8965 21.16814,6.3981 20.61914,12.2911 -0.549,5.8931 -10.67428,9.953 -22.61328,9.0566 -9.6387,-0.7158 -17.51103,-4.441 -19.89453,-8.9512 l 1.88281,24.9199 c 7.9501,5.7541 19.42297,9.4239 32.16797,9.4239 24.0519,0 43.54492,-13.0727 43.54492,-29.1953 0,-3.9472 -1.16875,-7.7127 -3.28125,-11.1387 h 23.58789 v 36.4844 c 0,1.4108 1.14584,2.5644 2.55664,2.5644 h 29.820317 c 1.4038,0 2.556641,-1.1536 2.556641,-2.5644 v -76.6797 h 14.113281 v 76.6797 c 0,1.4108 1.153653,2.5644 2.564453,2.5644 h 29.814454 c 1.4106,0 2.5625,-1.1536 2.5625,-2.5644 v -76.6797 h 80.531252 v 17.1523 c -7.9572,-7.3872 -12.336935,-10.2667 -32.802735,-10.6836 -20.4660999,-0.4239 -41.79247,13.5529 -42.48047,37.7715 -0.6948,24.2185 24.1479701,37.7774 42.48047,37.7774 18.3393,0 25.012435,-2.2877 32.802735,-10.6895 v 5.3516 c 0,1.4108 1.160553,2.5644 2.564453,2.5644 h 28.853517 c 1.4038,0 2.55664,-1.1536 2.55664,-2.5644 v -76.6797 h 50.132812 c 30.0143,22.9747 -9.26288,45.6364 -15.95508,18.5547 -0.6673,-1.4871 -0.96002,-2.481 -3.29492,-1.5567 -6.5463,2.7658 -13.0856,5.531 -19.625,8.2969 -2.1542,1.2717 -2.591868,1.8353 -2.10547,3.6699 10.3685,37.7143 38.25011,56.1706 82.75391,49.4297 1.2995,-0.1598 3.39134,-0.506 3.52344,-2.7715 v -13.5644 c -0.055,-2.6407 -2.18274,-2.8281 -4.86524,-3.0157 -12.1614,0.3822 -23.4202,-0.4602 -33.7539,-5.707 -2.0501,-1.376 -0.79729,-3.7395 0.78711,-3.6699 34.6219,-4.6214 46.48196,-25.8018 31.38086,-49.666 h 53.38672 c 28.7704,22.794 -9.97174,44.9135 -16.61524,18.0332 -0.6603,-1.4802 -0.96002,-2.474 -3.29492,-1.5567 -6.5464,2.7658 -13.0857,5.5388 -19.625,8.3047 -2.1543,1.2647 -2.59207,1.8353 -2.10547,3.67 10.3754,37.7073 38.25021,56.1647 82.75391,49.4238 1.3065,-0.1598 3.3973,-0.5062 3.5293,-2.7578 v -13.5723 c -0.056,-2.6408 -2.18974,-2.8369 -4.86524,-3.0176 -12.1685,0.3822 -23.42607,-0.4661 -33.75977,-5.7129 -2.0431,-1.369 -0.79934,-3.7316 0.78516,-3.6621 11.1537,-1.4872 22.48906,-5.351 28.78516,-9.8125 l 34.03711,-0.027 v 37.3672 c 0,1.4107 1.15355,2.5644 2.56445,2.5644 h 28.85352 c 1.4107,0 2.57226,-1.1537 2.57226,-2.5644 v -76.6797 h 16.42774 v 76.6797 c 0,1.4107 1.16156,2.5644 2.57226,2.5644 h 28.85352 c 1.4037,0 2.54297,-1.1537 2.54297,-2.5644 v -76.6797 h 136.76367 v 21.4746 h -66.0957 c -2.8215,0.3753 -4.39053,1.7913 -4.51563,4.4043 l -0.0918,8.125 c -0.5074,3.4608 1.09792,5.2747 4.60742,5.6152 23.2872,5.3788 9.436,21.3904 -0.4668,22.0645 -22.9121,1.2092 -28.61627,-8.5562 -30.70117,-22.9414 -0.083,-3.9195 -1.86171,-5.3984 -6.62891,-4.627 -8.0126,1.4872 -14.359,3.2806 -22.8164,4.9902 -1.7721,0.069 -3.56356,3.2156 -2.66016,4.8418 5.4273,24.2324 26.03731,34.4214 53.13281,35.2969 34.9971,4.5449 62.6084,-22.9397 51.3086,-33.8711 -1.2509,-4.5796 -0.77919,-4.8926 2.13281,-5.0039 h 21.7793 1.01562 v 36.3106 c 0,1.4107 1.15873,2.5644 2.54883,2.5644 h 28.85352 c 1.4107,0 2.56445,-1.1537 2.56445,-2.5644 v -76.6797 h 11.17578 c 1.4108,0 2.55078,-1.1537 2.55078,-2.5645 v -6.6426 c 0,-1.4107 -1.13998,-2.5566 -2.55078,-2.5566 H 388.39454 v -15.7285 c 0,-10.146 -8.29645,-18.4414 -18.43555,-18.4414 h -49.44531 c -10.16,0 -18.45703,8.2954 -18.45703,18.4414 v 15.7285 H -32.458985 l -40.382814,-36.0195 c -0.7089,-0.6324 -1.79934,-1.1485 -2.43164,-1.1485 z m -691.93361,1.7305 c -9.74302,0 -17.71485,7.9718 -17.71485,17.7149 v 17.7207 h -129.73828 c -3.91944,0 -3.62621,11.7656 0.21679,11.7656 h 66.49024 c 2.17516,2.8701 1.56345,6.9555 0.25,7.8242 -2.16124,1.0841 -5.87169,-0.3119 -10.5625,-0.8262 -23.24563,-1.2926 -36.27512,0.2155 -46.76172,4.4824 -15.12182,8.3461 -16.05333,21.6334 -0.52148,30.6954 11.74443,6.1224 35.32972,7.9162 64.60742,6.5195 3.69706,0.2849 6.41456,1.7289 7.2207,2.6601 3.87079,4.5031 -10.3059,9.4112 -22.67578,2.6426 -3.86385,-1.3899 -33.87134,-3.851 -42.71094,-4.0039 -14.3157,-0.9104 -18.74972,3.0999 -18.22851,10.1953 1.43852,19.0551 50.72356,19.0539 64.1289,16.6426 l 4.08594,8.1719 c 0.77833,4.8438 3.96262,5.7406 8.64649,4.1562 l 14.70507,-3.5234 c 2.98128,-0.5004 4.96797,-1.8137 4.53711,-5.0937 l -0.70898,-5.6504 c 12.21701,-1.7095 17.73477,-5.3237 22.37695,-9.6114 10.50051,-8.9369 11.57854,-23.9327 -8.9082,-30.3261 -13.7667,-4.114 -27.89496,-2.3619 -41.98828,-2.9317 -5.88613,-0.2363 -14.70651,0.8189 -17.61133,-3.2187 -2.25856,-6.1224 1.74544,-7.0451 13.69141,-8.5254 11.95292,-1.4802 22.76732,-0.1399 36.90234,1.7226 8.26281,2.2654 11.48688,-0.1951 10.07617,-7.8047 -1.90413,-5.4206 -1.9326,-12.1877 -0.25781,-14.3281 h 18.73438 c 4.00282,0 4.0039,0.1299 4.0039,3.5977 v 63.4355 0.416 6.2891 c 0,3.0994 2.53729,5.6367 5.63672,5.6367 h 24.7793 c 3.0994,0 5.63672,-2.5373 5.63672,-5.6367 v -3.1406 -70.4668 c 0,-1.7095 9.21484,-1.362 9.21484,0 l -0.0137,31.6816 c 11.25103,20.7578 30.87578,30.1531 52.12695,31.668 26.11573,0.2433 39.4875,-8.3472 44.56055,-22.6699 l -0.4668,-34.8086 c 0.0626,-5.8722 -0.97291,-5.8711 6.40039,-5.8711 h 68.30665 c 1.42462,0 0.90963,8.3397 -0.19532,8.1035 -15.64999,-1.4247 -31.89649,-2.1681 -47.81054,-0.1875 -13.18296,3.565 -18.88878,10.6935 -19.66016,19.6582 0.31966,8.4574 6.85915,19.1741 41.1543,21.3145 15.78201,0.6671 40.66113,-5.8376 41.73828,6.164 0.28492,7.2135 -19.67492,12.2524 -32.53125,10.9043 -14.31571,-0.5907 -32.95488,-3.8438 -41.82227,-9.1601 -5.26763,-3.162 -7.03169,-1.216 -7.0039,0.9453 0.0208,2.1612 -0.0985,4.9762 0.42968,7.9922 1.82074,3.5581 15.07389,9.027 24.42774,11.8554 26.86627,7.6234 51.75199,5.4488 74.96289,-1.1601 13.39839,-4.5032 21.34911,-12.2306 21.14063,-22.4532 0.6185,-10.5143 -10.3269,-18.5831 -21.23047,-18.875 -16.33102,-1.3899 -34.53152,1.917 -50.07032,-0.7168 -7.02581,-1.4455 -4.87086,-10.881 0.91797,-10.7421 14.36435,-0.035 28.73527,-0.077 43.09961,-0.1114 7.13007,0.069 10.79795,0.062 10.85352,-3.2734 v -20.2578 h 56.11719 c 8.80485,2.3003 14.48202,10.639 14.74609,19.5898 -0.27101,14.8995 -19.04738,26.0184 -35.46875,14.4199 -7.43582,-5.6568 -17.0055,-0.1035 -12.30078,7.6172 11.80002,19.354 22.06488,29.3187 52.07227,30.9727 19.7501,0.2154 36.79722,-4.4957 51.31445,-13.7871 1.508,-0.82 3.00672,-0.8768 4.50781,-0.092 l 0.0781,12.543 c -0.0487,7.825 2.13985,8.0464 15.83008,7.7128 13.69722,-0.3405 17.04659,0.7168 17.12304,-7.7128 0.59763,-20.5006 -0.35246,-41.0013 0.23828,-61.502 -0.13203,-11.1676 -2.60017,-9.5471 11.67383,-9.832 24.03784,0.4659 50.36955,-0.3538 76.42969,0.01 4.80202,0.069 5.03036,1.112 5.08594,4.9063 v 13.4883 c 0.38916,3.4956 -1.43064,4.6635 -4.66211,4.33 h -48.58398 c -30.73014,-1.2303 -30.47284,16.1768 -30.28516,22.7579 0.1876,6.5741 7.50494,24.1271 26.22656,23.5781 18.72154,-0.549 31.9962,-17.8247 19.9668,-29.4024 7.46365,0.042 15.94848,0.076 23.41211,0.1172 13.12736,-0.1043 13.86322,-0.088 13.92578,4.4571 0.0626,4.538 0.0277,19.0414 0,27.0332 0.22237,8.7909 -1.17431,8.0963 16.38672,8.041 17.55411,-0.056 17.91602,1.3545 17.91602,-8.041 0,0 0.0698,-55.3233 0,-63.2872 -0.0626,-8.1239 -0.0284,-8.3007 5.35742,-8.3007 h 18.0957 c 5.44833,-0.2501 4.99661,-11.3614 0,-11.3614 l -315.20313,-0.039 v -17.7031 c 0,-9.743 -7.97768,-17.7129 -17.7207,-17.7129 z m 1430.27737,1.1836 c -1.5012,0 -1.60669,1.2371 -0.21679,2.752 l 28.91015,31.5 h -44.11523 c -1.9666,0 -3.5918,1.6122 -3.5918,3.5859 v 4.5937 c 0,1.9736 1.6252,3.586 3.5918,3.586 h 93.17773 v 20.9726 c -10.1946,-8.3253 -25.61556,-13.6347 -42.88476,-13.6347 -30.6745,0 -55.55274,16.7698 -55.55274,37.4511 0,20.6883 24.87824,37.4571 55.55274,37.4571 17.2692,0 32.69016,-5.3095 42.88476,-13.6348 v 7.7481 c 0,1.4941 1.14019,2.7187 2.55079,2.7187 h 28.85351 c 1.4037,0 2.56445,-1.2246 2.56445,-2.7187 v -76.3594 h 83.53907 v 16.5957 c -8.0612,-6.2405 -18.7988,-10.0488 -30.5918,-10.0488 -24.983,0 -45.24805,17.1163 -45.24805,38.2285 0,21.1191 20.26505,38.2343 45.24805,38.2343 11.793,0 22.5306,-3.8071 30.5918,-10.0546 v 3.5644 c 0,1.501 1.13803,2.7246 2.54883,2.7246 h 28.85351 c 1.4107,0 2.56446,-1.2236 2.56446,-2.7246 v -36.0742 -0.7285 c 37.3319,-26.3728 61.53689,18.137 21.40429,20.9863 -3.0369,-0.01 -5.36477,-0.1531 -5.33007,2.8281 l 0.0898,9.4922 c 0,1.2092 0.25127,2.6192 2.50977,3.3281 31.4043,10.4797 60.92479,-1.09 61.34179,-31.4101 0.4169,-30.8275 -44.19667,-50.3541 -80.01367,-25.4336 v -19.5078 h 72.07617 c 1.9876,0 3.60157,-1.6124 3.60157,-3.586 v -4.5937 c 0,-1.9737 -1.61397,-3.5859 -3.60157,-3.5859 H 728.97072 l -28.90234,-31.5 c -1.3969,-1.5149 -3.76131,-2.752 -5.28321,-2.752 h -24.66211 c -1.515,0 -1.62737,1.2371 -0.23047,2.752 l 28.91016,31.5 h -11.48047 l -28.9082,-31.5 c -1.3969,-1.5149 -3.76131,-2.752 -5.28321,-2.752 z m 107.49219,0.082 c -8.6381,0 -15.65625,5.8786 -15.65625,13.1407 0,7.2552 7.01815,13.1425 15.65625,13.1425 8.6589,0 15.65821,-5.8873 15.65821,-13.1425 0,-7.2621 -6.99931,-13.1407 -15.65821,-13.1407 z m -391.41016,17.6231 h 0.93945 c 3.6554,0 6.65625,2.9959 6.65625,6.6582 v 9.8887 h -14.24609 v -9.8887 c 0,-3.6623 2.99519,-6.6582 6.65039,-6.6582 z m -1123.92776,2.5801 h 171.75391 c 2.25854,0 4.09961,1.848 4.09961,4.0996 v 8.8379 c 0,0.5629 -0.45859,1.0293 -1.02149,1.0293 h -177.9043 c -0.56288,0 -1.0293,-0.4664 -1.0293,-1.0293 v -8.8379 c 0,-2.2516 1.84997,-4.0996 4.10157,-4.0996 z m -419.88086,7.6074 c -23.466,23.3476 -46.9356,46.6953 -70.4024,70.0429 l 13.4297,13.4278 56.9727,-56.6778 56.5547,56.2598 1.289,-1.293 9.9825,-9.9843 2.1562,-2.1524 c -23.3223,-23.2103 -46.6543,-46.4127 -69.9824,-69.623 z m -243.3262,0.166 c -23.3533,23.232 -46.7052,46.4633 -70.0586,69.6953 l 13.4277,13.4297 56.6309,-56.332 57.5039,57.1992 13.4317,-13.4297 z m 706.168,17.959 c 5.51779,0.1112 12.05641,-0.1111 17.57421,0 0.34053,10.3963 -0.34051,20.633 0,31.0293 -0.22932,9.8612 -14.02309,11.9529 -17.57421,0 z m 1008.31252,0 h 31.11133 v 21.7597 h -25.15039 c 0.7296,-6.6506 -1.20764,-14.0598 -5.96094,-21.7597 z m -733.68752,0.06 h 27.97852 c 0,9.8403 -0.13281,19.6734 -0.13281,29.5137 -13.85011,15.7751 -37.23399,29.7996 -56.16407,19.2227 29.7155,-3.6832 49.78492,-29.716 28.31836,-48.7364 z m -616.4492,16.9004 c -40.505,40.2947 -81.0183,80.5958 -121.5254,120.8906 -38.803,-38.6044 -77.6089,-77.2081 -116.4141,-115.8125 v 26.793 c 38.8052,38.6045 77.6111,77.2082 116.4141,115.8125 40.51,-40.302 81.0204,-80.5965 121.5254,-120.8984 z M -1564,4859.5704 v 26.793 c 40.4111,40.2008 80.8255,80.4014 121.2402,120.6094 38.8622,-38.6621 77.7227,-77.3236 116.582,-115.9785 v -26.793 c -38.8615,38.655 -77.7226,77.3163 -116.582,115.9785 -40.4118,-40.2008 -80.8263,-80.4085 -121.2402,-120.6094 z m 2367.1133,7.4199 c 9.3607,0 17.35327,4.3021 20.60547,10.3829 v 12.0507 c -3.2522,6.0806 -11.24477,10.3809 -20.60547,10.3809 -12.224,0 -22.14844,-7.3443 -22.14844,-16.4062 0,-9.062 9.92444,-16.4083 22.14844,-16.4083 z m -767.148455,0.1329 c 11.0565,0 16.477969,2.8067 20.042969,9.0195 v 14.2129 c -3.565,6.2058 -8.986469,9.5195 -20.042969,9.5195 -11.0633,0 -21.988282,-6.872 -21.988282,-16.6289 0,-9.75 10.924982,-16.123 21.988282,-16.123 z m 645.779315,0.582 c 13.9586,0.4345 24.46679,6.4924 24.46679,14.8047 0,6.1085 -5.67713,11.9522 -14.21093,15.7187 l -17.78321,-30.2226 c 0.4447,-0.049 0.90182,-0.098 1.35352,-0.1328 2.1145,-0.1772 4.17983,-0.23 6.17383,-0.168 z m -22.84571,4.3301 17.73633,30.1543 c -0.3615,0.035 -0.70295,0.07 -1.06445,0.098 -16.9216,1.4246 -30.64649,-5.128 -30.64649,-14.6347 0,-6.0529 5.56591,-11.8437 13.97461,-15.6172 z m -1737.15235,29.6133 c -40.505,40.3019 -81.0183,80.5983 -121.5254,120.9003 -38.803,-38.6043 -77.6089,-77.2101 -116.4141,-115.8144 v 26.793 c 38.8082,38.5971 77.6111,77.2095 116.4141,115.8066 40.51,-40.2948 81.0204,-80.5958 121.5254,-120.8906 z M -1564,4902.4435 v 26.7949 c 40.4111,40.2008 80.8255,80.4007 121.2402,120.6016 38.8594,-38.6549 77.7205,-77.3178 116.582,-115.9727 v -26.793 c -38.8615,38.6621 -77.7198,77.3256 -116.582,115.9805 -40.4147,-40.2009 -80.8291,-80.4105 -121.2402,-120.6113 z m 2017.7129,22.207 c -8.4645,0 -15.31641,5.7608 -15.31641,12.877 0,7.1092 6.85191,12.8711 15.31641,12.8711 8.4781,0 15.33008,-5.7619 15.33008,-12.8711 0,-7.1162 -6.85198,-12.877 -15.33008,-12.877 z m -1531.9668,19.8731 c -40.505,40.3019 -81.0183,80.5964 -121.5254,120.8984 -38.806,-38.6044 -77.6059,-77.2082 -116.4141,-115.8125 v 26.793 c 38.8052,38.6044 77.6111,77.2003 116.4141,115.8047 40.51,-40.2947 81.0204,-80.5887 121.5254,-120.8907 z M -1564,4945.3185 v 26.7851 c 40.4111,40.2081 80.8284,80.4092 121.2402,120.6172 38.8622,-38.6621 77.7205,-77.3242 116.582,-115.9863 v -26.7871 c -38.8615,38.6549 -77.7198,77.3183 -116.582,115.9805 -40.4118,-40.2008 -80.8291,-80.4086 -121.2402,-120.6094 z m 890.10741,36.8437 c -2.52483,0 -4.59766,2.4862 -4.59766,5.5137 v 14.1504 c 0,3.0276 2.07283,5.5058 4.59766,5.5058 h 20.74023 c 2.53875,0 4.61133,-2.4782 4.61133,-5.5058 v -14.1504 c 0,-3.0275 -2.07258,-5.5137 -4.61133,-5.5137 z m 1182.44534,3.0313 c -2.9147,0.1721 -4.70081,2.078 -4.81641,6.5683 v 21.1504 75.9707 c -0.1251,5.7723 2.53877,7.0113 6.13477,6.7285 h 64.10742 c 16.408,0 38.06913,-13.3994 38.36133,-28.8281 0.8138,-10.6711 -7.81933,-25.151 -21.9668,-26.7812 -1.8432,-1.0397 -1.9545,-4.2008 0,-4.8496 14.78037,-3.0774 18.22491,-14.007 18.03711,-23.9629 0.4591,-13.9815 -17.36878,-25.9668 -33.35938,-25.9668 h -65.17968 c -0.4608,-0.043 -0.90196,-0.054 -1.31836,-0.029 z m -1457.69535,0.029 c -1.61366,0 -2.92773,1.5801 -2.92773,3.5097 v 103.377 c 0,1.9213 1.31407,3.5019 2.92773,3.5019 h 25.19922 c 1.60671,0 2.92969,-1.5806 2.92969,-3.5019 v -103.377 c 0,-1.9296 -1.32298,-3.5097 -2.92969,-3.5097 z m 222.20704,0 c -1.45369,0 -2.64454,1.4233 -2.64454,3.1699 v 30.3828 c 0.32691,2.3705 -2.53172,3.5105 -4.15234,1.9219 -6.39207,-6.5042 -13.05522,-8.9414 -22.17383,-8.9414 -20.13608,0 -36.4668,19.2141 -36.4668,42.9101 0,23.6962 16.33072,42.9082 36.4668,42.9082 10.34973,0 19.69065,-5.0727 26.32617,-13.207 v 8.084 c 0,1.7383 1.19085,3.1601 2.64454,3.1601 h 22.73632 c 1.4537,0 2.64454,-1.4218 2.64454,-3.1601 v -104.0586 c 0,-1.7466 -1.19084,-3.1699 -2.64454,-3.1699 z m 419.31055,0 c -42.05276,0 -59.9082,25.9669 -59.9082,54.8281 0,28.8696 21.30532,55.5605 59.9082,55.5605 38.60979,0 60.21317,-27.9468 59.91407,-55.5605 -0.2922,-27.6136 -17.8544,-54.8281 -59.91407,-54.8281 z m 1150.09964,0 c -1.6066,0 -2.92774,1.5801 -2.92774,3.5097 v 103.377 c 0,1.9213 1.32114,3.5019 2.92774,3.5019 h 25.18555 c 1.6136,0 2.93554,-1.5806 2.93554,-3.5019 v -14.3809 c -0.3617,-7.3442 6.62053,-13.1819 9.61133,-9.8964 l 17.61914,24.2792 c 1.4815,2.0294 4.4375,3.5 6.3711,3.5 h 31.82812 c 1.9337,0 2.22607,-1.5787 0.66797,-3.5 l -35.77148,-44.041 32.33593,-31.6562 c 1.9754,-1.9296 2.20342,-3.502 0.54102,-3.502 h -26.21484 c -1.6901,0 -4.68808,1.5474 -6.64258,3.502 l -24.51758,24.6777 c -1.5789,1.7962 -5.59173,4.6581 -5.82813,0.066 v -52.4258 c 0,-1.9296 -1.32194,-3.5097 -2.93554,-3.5097 z m -1150.14847,19.6386 c 18.3068,-0.3078 24.46094,15.8196 24.46094,35.3321 0,19.5208 -4.85347,35.3398 -24.46094,35.3398 -19.60049,0 -24.45507,-15.819 -24.45507,-35.3398 0,-19.5125 6.15525,-35.0327 24.45507,-35.3321 z m 850.72854,1.1563 h 23.49024 c 4.8132,0 8.74218,4.6902 8.74218,10.4375 0,5.739 -3.92898,10.4375 -8.74218,10.4375 H 543.0547 c -2.3163,0 -4.19336,-2.2528 -4.19336,-5.0059 v -10.8632 c 0,-2.7531 1.87706,-5.0059 4.19336,-5.0059 z m -1126.61917,5.3164 c -19.64016,-0.01 -40.36474,7.938 -45.87695,22.7793 -0.41037,2.5285 -0.36148,3.9754 2.88672,4.3164 4.68798,0.2828 8.90841,0.4155 17.81836,0.9395 2.01013,0.2246 4.43892,0.2087 6.0039,-3.1016 4.56974,-10.1223 31.12637,-15.1638 29.85352,4.5566 -0.17388,2.1459 0.92415,4.717 -4.20898,5.0332 -6.73289,0 -14.97415,0.8496 -21.70704,0.8496 -18.57805,2.3954 -32.51687,9.6138 -34.60351,27.3047 -1.02941,9.7314 11.21178,22.8315 28.89258,22.1661 11.17048,-0.4159 19.8102,0.01 29.88867,-10.1973 1.39805,-1.755 4.92937,-1.2147 4.7207,2.3535 0,0.7652 0.0566,1.5302 0.0566,2.2871 -0.0487,4.9904 -0.25132,4.9902 4.14453,4.9902 6.13473,0.108 12.77739,-0.1829 18.91211,0 3.99243,0 3.69532,1e-4 3.69532,-9.6132 -0.52166,-16.3686 0.75713,-30.7506 0.22851,-47.1192 -0.22953,-12.293 -5.44541,-14.9631 -10.04297,-18.7226 -7.48321,-5.9542 -18.87802,-8.8189 -30.66211,-8.8223 z m 1259.2012,0.076 c -19.6416,-0.01 -40.3671,7.9386 -45.875,22.7851 -0.4104,2.5201 -0.36034,3.9779 2.88086,4.3106 4.681,0.291 8.91536,0.4148 17.81836,0.9472 2.0311,0.2245 4.45362,0.199 6.01172,-3.1113 4.5767,-10.1139 31.11736,-15.1541 29.85156,4.5664 -0.1809,2.1458 0.92526,4.7075 -4.21484,5.0235 -6.726,0 -14.96114,0.8496 -21.71484,0.8496 -18.5571,2.3954 -32.49521,9.622 -34.59571,27.3047 -1.0294,9.7313 9.48584,21.9678 28.89844,22.1757 12.6312,0.1331 20.17887,-0.6489 29.88867,-10.1972 1.3981,-1.7633 4.92436,-1.2229 4.72266,2.3535 0,0.7569 0.0547,1.5121 0.0547,2.2773 -0.055,4.9904 -0.25137,4.9903 4.14453,4.9903 6.1347,0.108 12.77741,-0.1746 18.91211,0 3.9994,0 3.6875,0 3.6875,-9.6133 -0.5217,-16.3685 0.75803,-30.7423 0.23633,-47.1192 -0.2364,-12.2931 -5.44733,-14.9631 -10.04493,-18.7226 -7.4832,-5.9542 -18.87721,-8.8173 -30.66211,-8.8203 z m -1515.82816,0.1289 c -11.00354,0 -20.77762,5.7543 -26.89843,14.6289 -0.55644,0.8567 -1.3348,1.3303 -1.23047,-0.25 v -9.5059 c 0,-1.9296 -1.32103,-3.5019 -2.92774,-3.5019 h -22.52929 c -1.60671,0 -2.92774,1.5723 -2.92774,3.5019 v 75.6973 c 0,1.9213 1.32103,3.5 2.92774,3.5 h 25.19921 c 1.60671,0 2.92969,-1.5787 2.92969,-3.5 v -47.3106 c 0,-7.702 5.27299,-14.0078 11.72071,-14.0078 h 3.21875 c 6.44076,0 11.71484,6.3058 11.71484,14.0078 v 25.2344 22.2481 c 0,1.8298 1.2569,3.3281 2.78711,3.3281 h 23.96289 c 1.53019,0 2.78711,-1.4983 2.78711,-3.3281 v -58.9805 c -2.83088,-15.3206 -16.99733,-21.748 -30.73438,-21.748 z m 374.28126,0 c -11.78255,0 -22.1461,6.5869 -28.13476,16.5429 v -11.6699 c 0,-1.9296 -1.31603,-3.5019 -2.92969,-3.5019 h -9.26563 -13.26367 c -1.60672,0 -2.92773,1.5723 -2.92773,3.5019 v 75.6973 c 0,1.9213 1.32101,3.5 2.92773,3.5 h 25.20117 c 1.60671,0 2.92774,-1.5787 2.92774,-3.5 v -22.0762 -25.2344 c 0,-7.7019 5.27104,-14.0078 11.71875,-14.0078 h 3.21484 c 6.44771,0 11.72657,6.3059 11.72657,14.0078 v 25.2344 22.2481 c 0,1.8299 1.25105,3.3281 2.78125,3.3281 h 23.96289 c 1.53021,0 2.78906,-1.4982 2.78906,-3.3281 v -58.9805 c -3.65161,-15.0294 -16.31782,-21.2256 -29.5332,-21.7246 -0.40342,-0.016 -0.79885,-0.025 -1.19532,-0.025 z m 1254.99417,0 c -11.7826,0 -22.15306,6.5869 -28.13476,16.5429 v -11.6699 c 0,-1.9296 -1.32195,-3.5019 -2.93555,-3.5019 h -9.24414 -13.26367 c -1.6276,0 -2.92774,1.5723 -2.92774,3.5019 v 75.6973 c 0,1.9213 1.30014,3.5 2.92774,3.5 h 25.18554 c 1.6067,0 2.93555,-1.5787 2.93555,-3.5 v -22.0762 -25.2344 c 0,-7.7019 5.26405,-14.0078 11.71875,-14.0078 h 3.20703 c 6.4546,0 11.72071,6.3059 11.72071,14.0078 v 25.2344 22.2481 c 0,1.8299 1.25196,3.3281 2.78906,3.3281 h 23.95508 c 1.5373,0 2.78906,-1.4982 2.78906,-3.3281 v -58.9805 c -2.191,-13.9483 -16.3039,-21.2256 -29.5332,-21.7246 -0.3965,-0.016 -0.79296,-0.025 -1.18946,-0.025 z m -767.462906,0.6601 v 0.01 c -10.0713,0.6113 -14.3147376,5.3544 -16.7734376,9.3281 -0.7791,1.2642 -1.5358532,2.1216 -2.0644532,2.8535 -0.8764,1.2061 -2.64270632,1.6882 -2.62890632,0.3907 v -8.3672 c 0,-1.9214 -1.78864388,-3.502 -3.40234388,-3.502 h -22.527344 c -1.6066,0 -2.929688,1.5724 -2.929688,3.502 v 75.6972 c 0,1.9214 1.323088,3.5 2.929688,3.5 h 25.19921911 c 1.60669999,0 2.92773449,-1.5786 2.92773449,-3.5 v -34.5507 c 0.035,-6.2963 4.7500658,-12.1358 10.8847654,-15.3047 3.7142,-1.6136 8.195169,-1.9044 12.980469,-2.6446 2.817,-0.4741 3.387091,-4.2413 3.025391,-13.9726 -0.2573,-7.1197 1.3471,-13.5838 -2.9375,-13.4258 -1.6885,-0.096 -3.244894,-0.091 -4.683594,-0.01 z m -697.740254,0.711 c -1.60671,0 -2.92968,1.5723 -2.92968,3.5019 v 75.6973 c 0,1.9213 1.32297,3.5 2.92968,3.5 h 25.19922 c 1.60671,0 2.92774,-1.5787 2.92774,-3.5 v -75.6973 c 0,-1.9296 -1.32103,-3.5019 -2.92774,-3.5019 z m 436.42189,0 c -2.0727,0 -2.95863,2.0292 -1.95703,4.5078 l 29.67969,73.6914 c 1.0016,2.4785 3.51323,4.5 5.58593,4.5 h 4.99414 18.70899 2.92187 c 1.8919,0 4.11648,-1.8451 4.95118,-4.1074 l 27.37109,-74.4825 c 0.8347,-2.254 -0.0359,-4.1093 -1.92773,-4.1093 H -171 c -1.8919,0 -4.18712,1.8136 -4.94532,4.1093 l -14.38281,43.4903 c -1.252,3.8676 -3.43671,3.8002 -4.50781,-0.3086 -5.1053,-12.6757 -10.46902,-30.1076 -15.57422,-42.7832 -1.0016,-2.4786 -3.51324,-4.5078 -5.58594,-4.5078 z m 146.556643,0 c -26.674103,0 -48.298833,18.5145 -48.298833,41.3457 0,22.8395 21.62473,41.3535 48.298833,41.3535 20.9916,0 35.05706,-9.0076 42.19336,-21.0762 1.878,-2.753 1.731506,-4.4079 -1.621094,-4.3496 -6.9207,-0.091 -13.835259,0.149 -20.755859,-0.084 -12.9094,15.1044 -38.33077,7.2529 -36.41797,-10.8125 h 59.156251 c 2.8448,0.2579 4.687485,-1.1216 5.146485,-4.7812 0.1253,-20.7602 -15.775573,-41.5957 -47.701173,-41.5957 z m 172.349613,0 c -18.2832,-0.1154 -36.634826,6.6466 -40.265626,21.9922 -6.392,27.0231 33.101373,29.134 52.263673,30.2402 10.078497,0.5822 11.106827,11.3043 1.765625,13.7246 -13.8762,2.8279 -23.326707,2.3858 -29.941407,-6.9297 -7.3797,-0.5738 -14.758872,-0.2151 -22.138672,-0.789 -4.0967,0.1664 -5.301731,1.6558 -2.519531,6.0058 12.492,18.1818 26.542013,18.2545 40.007813,18.4375 41.767499,0.5906 46.037619,-19.9614 46.294919,-25.584 1.0364,-22.8311 -20.79693,-27.1067 -47.332028,-27.4394 -13.5353,-0.1746 -17.1522,-14.1471 0,-14.5879 12.1094,-0.3078 15.129291,4.0012 19.650391,8.293 9.028197,-0.2578 12.423047,-0.374 20.310547,-0.1993 1.5093,-0.1164 2.63503,-1.1575 1.76563,-3.9023 -3.363,-12.1558 -21.578034,-19.1463 -39.861334,-19.2617 z m 105.138674,0 c -26.6673,0 -48.29102,18.5145 -48.29102,41.3457 0,22.8395 21.62372,41.3535 48.29102,41.3535 20.9915,0 35.06201,-9.0076 42.19141,-21.0762 1.8918,-2.753 1.73232,-4.4079 -1.61328,-4.3496 -6.9137,-0.091 -13.83506,0.149 -20.75586,-0.084 -12.9163,15.1044 -38.32387,7.2529 -36.41797,-10.8125 h 59.14844 c 2.8517,0.2579 4.69725,-1.1216 5.15625,-4.7812 0.1253,-20.7602 -15.77649,-41.5957 -47.70899,-41.5957 z m 107.66407,0 c -19.6387,-0.01 -40.36241,7.7309 -45.87891,22.1875 -0.4103,2.4536 -0.36067,3.8587 2.89453,4.1914 4.681,0.2828 8.91054,0.3983 17.80664,0.914 2.0241,0.2246 4.44981,0.2013 6.00781,-3.0175 4.5767,-9.8478 31.14022,-14.7634 29.85352,4.4414 -0.167,2.0876 0.92503,4.5824 -4.20117,4.8984 -6.7259,0 -14.97423,0.8242 -21.70703,0.8242 -18.585,2.3289 -32.51682,9.3647 -34.60352,26.5899 -1.0364,9.4735 8.49137,21.4426 28.88477,21.584 12.6311,0.083 20.86047,-1.5878 29.88867,-9.9219 1.398,-1.7216 4.93825,-1.1979 4.72265,2.2871 0,0.7402 0.0547,1.4804 0.0547,2.2207 -0.035,4.8656 -0.24931,4.8633 4.14649,4.8633 6.1347,0.092 12.78903,-0.183 18.92383,0 3.9785,0 3.69531,9e-4 3.69531,-9.3633 -0.5286,-15.9444 0.73654,-29.9345 0.21484,-45.8789 -0.2156,-11.977 -5.44742,-14.5709 -10.04492,-18.2305 -7.4832,-5.7952 -18.875,-8.5868 -30.6582,-8.5898 z m 100.63281,0 c -18.3382,-0.1154 -36.74438,6.6466 -40.39258,21.9922 -6.399,27.0231 33.20593,29.134 52.42383,30.2402 10.1133,0.5822 11.14244,11.3043 1.77344,13.7246 -13.9179,2.8279 -23.39656,2.3858 -30.03906,-6.9297 -7.4006,-0.5738 -14.80243,-0.2151 -22.20313,-0.789 -4.1037,0.1664 -5.32035,1.6558 -2.53125,6.0058 12.5407,18.1818 26.63221,18.2545 40.13281,18.4375 41.9066,0.5906 46.17734,-19.9614 46.42774,-25.584 1.0503,-22.8311 -20.83833,-27.1067 -47.45703,-27.4394 -13.5909,-0.1746 -17.2078,-14.1388 0,-14.5879 12.1373,-0.3078 15.16317,4.0012 19.70507,8.293 9.0491,-0.2578 12.45075,-0.374 20.37305,-0.1993 1.5024,-0.1164 2.64294,-1.1575 1.77344,-3.9023 -3.3768,-12.1558 -21.64833,-19.1463 -39.98633,-19.2617 z m -485.228527,16.8711 c 7.924,-0.2037 15.921976,4.6016 15.859376,15.0273 -19.371,0.2163 -19.114198,0.2246 -31.279299,0 -0.3547,-9.6107 7.49592,-14.8235 15.419923,-15.0273 z m 277.492197,0 c 7.9232,-0.2037 15.92043,4.5999 15.86133,15.0215 -19.371,0.2246 -19.11225,0.2328 -31.27735,0 -0.3548,-9.6066 7.49292,-14.8177 15.41602,-15.0215 z m -930.13674,0.3554 c 7.72752,0 14.04883,7.5602 14.04883,16.8008 v 15.0645 c 0,9.2406 -6.32131,16.7988 -14.04883,16.7988 -7.73448,0 -14.05078,-7.5582 -14.05078,-16.7988 v -15.0645 c 0,-9.2406 6.3163,-16.8008 14.05078,-16.8008 z m 1288.48636,20.3868 h 25.83984 c 5.0288,0 9.15234,4.9235 9.15234,10.9453 0,6.0301 -4.12354,10.955 -9.15234,10.955 h -25.83984 c -2.4275,0 -4.39649,-2.3638 -4.39649,-5.25 v -11.4023 c 0,-2.8862 1.96899,-5.248 4.39649,-5.248 z m -1118.00784,7.7929 c 1.66931,6.4542 0.41065,14.2394 -5.24414,19.3047 -6.85113,4.9571 -17.18857,4.2574 -20.08204,-1.8808 -4.39586,-11.7025 7.72885,-16.0765 25.32618,-17.4239 z M 684.459,5058.39 c 1.6624,6.4542 0.39676,14.2409 -5.24414,19.3145 -6.8581,4.9488 -17.18554,4.2476 -20.08594,-1.8906 -4.3959,-11.7025 7.72588,-16.0682 25.33008,-17.4239 z m -383.62696,0.2735 c 1.6624,6.2797 0.39666,13.8582 -5.24414,18.7988 -6.8443,4.8157 -17.19439,4.1339 -20.08789,-1.8379 -4.3959,-11.3949 7.72773,-15.655 25.33203,-16.9609 z" /></g></svg>
