<svg xmlns="http://www.w3.org/2000/svg" viewBox="0 0 1440 1440"> <style> .icon-color { fill: #254aa0; } @media (prefers-color-scheme: dark) { .icon-color { fill: #f3f4f6; } } </style> <path class="icon-color" d="M720 22L387 356l42 41 291-291 292 292 41-42zM720 147l-21 21-250 250 42 41 229-229 229 229 42-42zM720 272l-21 21-187 187 42 42 166-167 167 167 42-42zM366 376l-21 21-312 313 41 41 292-291 292 291 41-41zM1074 376l-21 21-312 313 42 41 291-291 292 291 42-42zM366 501l-21 21-250 250 42 42 229-229 229 229 42-42zM1074 501l-271 271 42 42 229-229 229 229 42-42zM366 626l-21 21-187 187 41 42 167-167 166 167 42-42zM1074 626l-21 21-187 187 42 42 166-167 167 167 41-42zm-1062 104c0 28 0 56 0 83L366 1168l339-339v-84l-27 27-312 312-104-104L54 772zm1416 0l-229 229h0l-125 125-125-125-187-187-27-27v83l339 339 354-354zm-1416 125v83l354 354 339-339V870L366 1209zm1416 0L1074 1209l-339-339v83l339 339 354-354zm-1416 125v83l354 354 339-339v-83l-339 339zm1416 0L1074 1334l-339-339v83l339 339 354-354z"/> </svg>